<?xml version="1.0" encoding="UTF-8"?>
<svg width="1400px" height="1600px" viewBox="0 0 1400 1600" version="1.1" xmlns="http://www.w3.org/2000/svg" xmlns:xlink="http://www.w3.org/1999/xlink">
    <!-- Generator: Sketch 53.2 (72643) - https://sketchapp.com -->
    <title>404</title>
    <desc>Created with Sketch.</desc>
    <g id="404" stroke="none" stroke-width="1" fill="none" fill-rule="evenodd">
        <path d="M1325.5,849.4 C1448.1,1324.2 1367.5,1608.5 944.5,1596.5 C558.6,1585.6 410.4,1632.5 291.4,1466.8 C210.6,1354.3 155,1177.1 147.3,988.8 C138.7,777.3 190.6,551.9 335.4,388.7 C709,-32.5 1176.9,273.6 1325.5,849.4 Z" id="Path" fill="#7A1111" fill-rule="nonzero"></path>
        <path d="M554.4,1386 C554.4,1386 552.7,1419.3 542.1,1433.3 L591.4,1464 L642.1,1446.7 L647.4,1392 L600.7,1384 L554.4,1386 Z" id="Path" fill="#981313" fill-rule="nonzero"></path>
        <path d="M1256.9,390.1 L1290.4,538.6 C1290.4,538.6 1293.4,549.6 1300.9,549.1 C1308.4,548.6 1310.4,543.6 1310.4,543.6 L1348.4,388.6 L1256.9,390.1 Z" id="Path" fill="#FFFFFF" fill-rule="nonzero"></path>
        <path d="M934.9,380.1 C934.9,380.1 979.4,412.6 995.4,434.6 C1011.4,456.6 1065.4,547.1 1065.4,547.1 C1065.4,547.1 1058.9,590.1 1036.9,625.6 C1014.9,661.1 980.9,695.6 980.9,695.6 L918.4,646.1 L922.9,730.1 L933.4,842.6 C933.4,842.6 869.9,854.6 866.4,855.1 C862.9,855.6 819.9,857.6 819.9,857.6 L772.9,852.1 C772.9,852.1 733.1,842.6 704.9,827.6 C676.7,812.6 614.9,783.1 591.9,776.1 C568.9,769.1 531.4,762.1 531.4,762.1 L578.9,621.1 L557.4,644.1 C557.4,644.1 515.9,608.1 494.9,579.6 C473.9,551.1 450.4,515.6 450.4,515.6 L507.9,447.1 L571.9,390.6 L625.4,355.6 L677.4,334.1 L719.4,322.1 C719.4,322.1 717.9,370.6 757.9,403.6 C797.9,436.6 858.4,428.6 858.4,428.6 C858.4,428.6 909.4,420.1 934.9,380.1 Z" id="Path" fill="#FFFFFF" fill-rule="nonzero"></path>
        <path d="M723.4,347.2 L719.9,323.2 C719.8,322.4 719.3,321.6 718.6,321.2 C717.9,320.7 717.1,320.6 716.2,320.7 C715.8,320.8 674.8,330.1 627,353.9 C579.1,377.8 493.8,461.9 490.2,465.4 C490.1,465.5 490.1,465.5 490,465.6 L447.5,515.4 C446.7,516.4 446.5,517.8 447.2,518.9 L458.7,538.1 C459.2,539 460.1,539.5 461.1,539.6 C461.2,539.6 461.2,539.6 461.3,539.6 C462.2,539.6 463.1,539.2 463.7,538.4 C464.3,537.6 526.1,455.3 588,412.1 C649.8,368.9 720.3,350.7 721,350.5 C722.7,350.2 723.6,348.7 723.4,347.2 Z" id="Path" fill="#981313" fill-rule="nonzero"></path>
        <path d="M927.9,773.4 L922.4,709.5 L922.4,679.1 C922.4,677.9 921.7,676.9 920.7,676.4 C919.6,675.9 918.4,676.1 917.5,676.8 L873.5,713.8 C872.9,714.3 872.5,715.1 872.4,715.9 C872.3,716.7 872.6,717.5 873.1,718.1 L922.6,775.6 C923.2,776.3 924,776.6 924.9,776.6 C925.3,776.6 925.7,776.5 926.1,776.4 C927.3,775.9 928,774.7 927.9,773.4 Z" id="Path" fill="#AF2424" fill-rule="nonzero"></path>
        <path d="M754.8,646.7 C740.1,646.7 728.2,658.6 728.2,673.3 C728.2,688 740.1,699.9 754.8,699.9 C769.5,699.9 781.4,688 781.4,673.3 C781.4,658.6 769.4,646.7 754.8,646.7 Z" id="Path" fill="#1A1A1A" fill-rule="nonzero"></path>
        <path d="M603.4,549.9 C588.7,549.9 576.8,538 576.8,523.3 C576.8,508.6 588.7,496.7 603.4,496.7 C618.1,496.7 630,508.6 630,523.3 C630,538 618.1,549.9 603.4,549.9 Z M603.4,502.7 C592,502.7 582.8,511.9 582.8,523.3 C582.8,534.7 592,543.9 603.4,543.9 C614.8,543.9 624,534.7 624,523.3 C624,511.9 614.8,502.7 603.4,502.7 Z" id="Shape" fill="#AF2424" fill-rule="nonzero"></path>
        <path d="M695.4,427.9 C679.3,427.9 666.1,414.8 666.1,398.6 C666.1,382.5 679.2,369.3 695.4,369.3 C711.5,369.3 724.7,382.4 724.7,398.6 C724.7,414.8 711.6,427.9 695.4,427.9 Z M695.4,375.4 C682.6,375.4 672.1,385.8 672.1,398.7 C672.1,411.6 682.5,422 695.4,422 C708.3,422 718.7,411.6 718.7,398.7 C718.7,385.8 708.3,375.4 695.4,375.4 Z" id="Shape" fill="#1A1A1A" fill-rule="nonzero"></path>
        <path d="M970.8,550.6 C959.4,550.6 950.1,559.9 950.1,571.3 C950.1,582.7 959.4,592 970.8,592 C982.2,592 991.5,582.7 991.5,571.3 C991.5,559.9 982.2,550.6 970.8,550.6 Z" id="Path" fill="#AF2424" fill-rule="nonzero"></path>
        <path d="M622.8,764 C612.1,764 601.8,767.9 593.8,774.9 C592.6,776 592.4,777.9 593.5,779.1 C594.6,780.3 596.5,780.5 597.7,779.4 C598.1,779.1 598.4,778.8 598.8,778.5 L660.5,805.1 C660.5,805.6 660.6,806.1 660.6,806.5 C660.7,808.1 662,809.4 663.6,809.4 L663.7,809.4 C665.4,809.3 666.7,808 666.6,806.3 C665.8,782.7 646.6,764 622.8,764 Z" id="Path" fill="#AF2424" fill-rule="nonzero"></path>
        <path d="M801.8,785.7 C800.9,785.7 799.9,785.3 799.3,784.4 L764.3,734 C763.8,733.3 763.6,732.4 763.8,731.6 C764,730.8 764.5,730.1 765.3,729.7 L816,702 C817.3,701.3 818.9,701.6 819.8,702.8 L854.5,745.8 C855,746.4 855.3,747.3 855.1,748.1 C855,748.9 854.5,749.7 853.8,750.1 L803.4,785.1 C802.9,785.5 802.3,785.7 801.8,785.7 Z M771.1,733.3 L802.5,778.5 L847.8,747.1 L816.7,708.5 L771.1,733.3 Z" id="Shape" fill="#1A1A1A" fill-rule="nonzero"></path>
        <path d="M613,731.7 L592.9,702.7 C592.4,702 591.8,701.6 591,701.5 C590.2,701.4 589.4,701.5 588.8,702 L554.6,725.7 C553.2,726.6 552.9,728.5 553.8,729.9 L573.9,758.9 C574.4,759.6 575,760 575.8,760.1 C576,760.1 576.2,760.1 576.3,760.1 C576.9,760.1 577.5,759.9 578,759.6 L612.2,735.9 C613.6,734.9 613.9,733 613,731.7 Z" id="Path" fill="#1A1A1A" fill-rule="nonzero"></path>
        <path d="M727.1,634.8 C725.9,634.8 724.7,634 724.3,632.8 L709.4,589.3 C709.1,588.5 709.2,587.6 709.6,586.8 C710,586.1 710.8,585.5 711.6,585.4 L756.1,576.4 C757.6,576.1 759,576.9 759.5,578.3 L773.4,616 C773.7,616.8 773.6,617.6 773.3,618.3 C773,619 772.3,619.6 771.6,619.8 L728.1,634.7 C727.8,634.8 727.4,634.8 727.1,634.8 Z M716.2,590.6 L729,628 L766.8,615.1 L754.9,582.7 L716.2,590.6 Z" id="Shape" fill="#AF2424" fill-rule="nonzero"></path>
        <path d="M761.4,513.6 C760.5,513.6 759.6,513.2 759,512.4 L733.8,478.1 C733.3,477.4 733.1,476.6 733.3,475.8 C733.5,475 733.9,474.3 734.6,473.8 L788.2,439.3 C788.9,438.9 789.7,438.7 790.5,438.9 C791.3,439.1 792,439.6 792.4,440.3 L818.7,484.5 C819.1,485.2 819.2,486.1 819,486.9 C818.8,487.7 818.2,488.4 817.4,488.7 L762.7,513.4 C762.3,513.6 761.9,513.6 761.4,513.6 Z M740.5,477.1 L762.4,506.9 L811.8,484.6 L788.8,446 L740.5,477.1 Z" id="Shape" fill="#AF2424" fill-rule="nonzero"></path>
        <path d="M635,415.9 L599.6,385.1 C598.5,384.2 596.9,384.1 595.8,385 L545.9,424.5 C544.6,425.5 544.4,427.4 545.4,428.7 L577.6,469.6 C578.1,470.3 578.9,470.7 579.7,470.7 C579.8,470.7 579.9,470.7 579.9,470.7 C580.7,470.7 581.4,470.4 581.9,469.9 L635,420.3 C635.6,419.7 636,418.9 636,418.1 C636.1,417.3 635.7,416.5 635,415.9 Z" id="Path" fill="#981313" fill-rule="nonzero"></path>
        <path d="M716.7,542.2 C716.3,542.2 716,542.1 715.6,542 L671,525.1 C669.9,524.7 669.2,523.7 669.1,522.6 C669,521.5 669.5,520.4 670.4,519.8 L712,492.5 C712.9,491.9 714,491.8 715,492.3 C716,492.8 716.6,493.7 716.7,494.8 L719.7,539 C719.8,540 719.3,541 718.5,541.6 C717.9,542 717.3,542.2 716.7,542.2 Z M678.7,521.6 L713.4,534.7 L711.1,500.3 L678.7,521.6 Z" id="Shape" fill="#AF2424" fill-rule="nonzero"></path>
        <path d="M669.3,477.4 L660.3,442.4 C660,441.4 659.3,440.6 658.3,440.3 C657.3,440 656.2,440.2 655.5,440.9 L621.5,469.4 C620.6,470.2 620.2,471.4 620.5,472.5 C620.8,473.6 621.8,474.5 622.9,474.7 L665.9,481.2 C666,481.2 666.2,481.2 666.3,481.2 C667.1,481.2 668,480.8 668.5,480.2 C669.3,479.4 669.6,478.4 669.3,477.4 Z" id="Path" fill="#1A1A1A" fill-rule="nonzero"></path>
        <path d="M520.4,510.6 C519.4,510.6 518.5,510.1 517.9,509.3 C517.3,508.5 517.2,507.4 517.6,506.5 L531.6,471.5 C532,470.4 533.1,469.7 534.3,469.6 C535.5,469.5 536.6,470.2 537.1,471.2 L554.6,505.7 C555.1,506.6 555,507.7 554.5,508.6 C554,509.5 553,510 552,510.1 L520.4,510.6 C520.5,510.6 520.5,510.6 520.4,510.6 Z M534.8,479.9 L524.9,504.6 L547.1,504.2 L534.8,479.9 Z" id="Shape" fill="#1A1A1A" fill-rule="nonzero"></path>
        <path d="M525.4,617.9 C524.3,617.9 523.2,617.3 522.7,616.2 C522,614.7 522.6,612.9 524.1,612.2 L558,596.3 L532.4,534.4 L494.5,577.3 C493.4,578.5 491.5,578.7 490.3,577.6 C489.1,576.5 488.9,574.6 490,573.4 L531.1,526.9 C531.8,526.1 532.8,525.8 533.8,525.9 C534.8,526.1 535.7,526.8 536.1,527.7 L564.6,596.7 C565.2,598.2 564.6,599.9 563.1,600.6 L526.6,617.7 C526.3,617.8 525.9,617.9 525.4,617.9 Z" id="Path" fill="#AF2424" fill-rule="nonzero"></path>
        <path d="M867.4,673.1 C867,673.1 866.5,673 866.1,672.8 L819.6,651.3 C818.6,650.9 818,649.9 817.9,648.9 C817.8,647.8 818.3,646.8 819.1,646.2 L859.1,617.2 C860,616.6 861.1,616.5 862.1,616.9 C863.1,617.3 863.8,618.2 863.9,619.3 L870.4,669.8 C870.5,670.9 870.1,672 869.2,672.6 C868.7,672.9 868.1,673.1 867.4,673.1 Z M826.8,648.1 L863.7,665.2 L858.5,625.1 L826.8,648.1 Z" id="Shape" fill="#AF2424" fill-rule="nonzero"></path>
        <path d="M919.5,473.9 C919.4,472.8 918.7,471.9 917.7,471.5 C916.7,471.1 915.6,471.2 914.7,471.8 L881.6,495.8 C880.7,496.4 880.3,497.5 880.4,498.5 C880.5,499.6 881.2,500.5 882.1,500.9 L920.6,518.7 C921,518.9 921.4,519 921.9,519 C922.5,519 923.2,518.8 923.7,518.4 C924.6,517.8 925,516.7 924.9,515.6 L919.5,473.9 Z" id="Path" fill="#1A1A1A" fill-rule="nonzero"></path>
        <path d="M746.7,761.8 L718.8,723.7 C718.2,722.9 717.3,722.5 716.4,722.5 C715.4,722.5 714.5,723 714,723.8 L688.8,759.2 C688.2,760.1 688.1,761.3 688.5,762.2 C689,763.2 690,763.8 691.1,763.9 L744.2,766.5 L744.3,766.5 C745.4,766.5 746.4,765.9 746.9,764.9 C747.5,764 747.4,762.7 746.7,761.8 Z" id="Path" fill="#AF2424" fill-rule="nonzero"></path>
        <path d="M825.4,858.1 C824.8,858.1 824.2,857.9 823.7,857.6 L750.8,806.5 L720.9,836.1 C719.7,837.3 717.8,837.3 716.7,836.1 C715.5,834.9 715.5,833 716.7,831.9 L748.4,800.6 C749.4,799.6 751,799.4 752.2,800.3 L827.2,852.8 C828.6,853.8 828.9,855.6 827.9,857 C827.3,857.7 826.4,858.1 825.4,858.1 Z" id="Path" fill="#AF2424" fill-rule="nonzero"></path>
        <path d="M974.4,518.6 C973.4,518.6 972.5,518.1 971.9,517.2 L943.4,473.2 C942.6,471.9 942.8,470.2 944,469.2 L991.2,431 C992.5,430 994.4,430.2 995.4,431.4 C996.4,432.7 996.2,434.6 995,435.6 L949.9,472.2 L975.4,511.6 L1028,482 C1029.4,481.2 1031.3,481.7 1032.1,483.1 C1032.9,484.5 1032.4,486.4 1031,487.2 L976,518.2 C975.4,518.5 974.9,518.6 974.4,518.6 Z" id="Path" fill="#AF2424" fill-rule="nonzero"></path>
        <path d="M950.9,673.6 C950.5,673.6 950,673.5 949.6,673.3 C948.1,672.6 947.4,670.8 948.1,669.3 L967.6,627.3 C968.1,626.3 969.1,625.6 970.2,625.6 L1034.2,623.6 C1035.8,623.6 1037.2,624.8 1037.3,626.5 C1037.4,628.2 1036.1,629.5 1034.4,629.6 L972.2,631.5 L953.5,671.8 C953.1,673 952.1,673.6 950.9,673.6 Z" id="Path" fill="#AF2424" fill-rule="nonzero"></path>
        <path d="M906.4,851.6 L930.4,1088.6 L952.4,1296.6 C952.4,1296.6 961.4,1330.6 960.7,1341.6 C960,1352.6 960.4,1369.3 955.4,1374.3 C950.4,1379.3 912.1,1395.6 912.1,1395.6 L873.8,1400.9 L840.8,1402.2 C840.8,1402.2 805.8,1398.2 797.8,1384.5 C789.8,1370.8 783.5,1297.5 783.5,1297.5 L769.8,1182.2 L751.8,1025.5 L735.1,885 L728.1,884.7 L722.1,947.4 L708.8,1067.4 L691.5,1238.7 L683.5,1306.7 C683.5,1306.7 685.5,1336.4 682.2,1353.4 C678.9,1370.4 668.5,1386.7 668.5,1386.7 L647.5,1392 L593.2,1394.3 L554.5,1386 C554.5,1386 516.5,1375.3 514.5,1353.7 C512.5,1332.1 517.5,1283.7 517.5,1283.7 L525.2,1183.7 L536.5,1045 L546.2,926.7 L554.5,806 L558.8,766.3 L596.5,778.6 L676.8,812.6 C676.8,812.6 735.5,845.3 763.5,850.3 C791.5,855.3 870.5,856.6 870.5,856.6 L906.4,851.6 Z" id="Path" fill="#981313" fill-rule="nonzero"></path>
        <path d="M842.1,1320.4 C841.9,1320.4 820.2,1315.3 816.7,1302.2 C815.1,1296.2 819.1,1290.3 823.3,1284 C828.2,1276.7 833.8,1268.5 831,1258.8 C828.4,1249.6 820.2,1240.1 810.7,1229.1 C802.4,1219.5 793.1,1208.6 786.1,1196.2 C777.7,1181.4 772.6,1159.3 769.9,1145 L767.6,1130.9 C767.3,1129.3 765.8,1128.2 764.2,1128.4 C762.6,1128.6 761.4,1130.1 761.6,1131.7 C761.7,1132.3 762.4,1138.5 764.1,1147.1 L770.1,1184.3 L783.1,1314.2 C783.2,1315.4 784,1316.4 785.2,1316.8 L803.5,1322.5 C803.7,1322.6 803.9,1322.6 804.1,1322.6 L841.1,1326.3 C841.2,1326.3 841.3,1326.3 841.4,1326.3 C842.9,1326.3 844.1,1325.2 844.4,1323.8 C844.6,1322.2 843.6,1320.7 842.1,1320.4 Z" id="Path" fill="#FFFFFF" fill-rule="nonzero"></path>
        <path d="M620.8,914.6 C614,905.2 606.3,894.5 600,883.4 L599.7,882.8 C588.4,862.8 583.6,840 585.8,816.9 C587.6,797.9 589.9,775 589.9,775 C589.9,774.6 589.9,774.2 589.8,773.8 C589.3,772.4 588.6,771.4 579.3,768.6 C570.8,766 560.7,765.6 560.2,765.6 C558.6,765.5 557.2,766.8 557.1,768.4 L552.9,825.4 L541.4,969.1 L517,1288.6 C517,1289.2 517.1,1289.8 517.4,1290.3 C518,1291.4 524.5,1301.2 556.1,1308 C568.1,1310.6 603.6,1315.3 605.1,1315.5 C605.2,1315.5 605.4,1315.5 605.5,1315.5 C607,1315.5 608.2,1314.4 608.5,1313 C608.8,1311.4 607.7,1309.9 606.1,1309.6 C590.5,1306.7 580.9,1289.4 577,1274.3 C573.4,1260.3 575,1250.1 577.4,1248.1 C581.7,1244.6 584.9,1246.6 592.1,1252.8 C594.9,1255.2 597.7,1257.7 601,1259.6 C606.3,1262.7 612,1262.5 616.3,1259 C621,1255.2 622.8,1248.5 620.9,1242.6 C619.6,1238.8 615.8,1233.7 610,1226 C601.1,1214.3 587.7,1196.5 576.8,1173.3 C573.7,1166.7 571,1159.1 568.7,1150.7 C563.2,1130.7 561.2,1109.4 562.8,1087.5 C564.9,1057.9 566.9,1029.9 568.7,1004.5 C569.6,992.7 573,981.4 578.6,971.8 C584.5,961.8 592,954.5 599.1,951.8 C604.6,949.7 610.7,951.3 616.6,952.9 C623.6,954.7 630.7,956.7 636.1,951.7 C643,945.3 634.2,933.1 620.8,914.6 Z" id="Path" fill="#FFFFFF" fill-rule="nonzero"></path>
        <path d="M934.9,380.1 L876.7,341.3 C876.7,341.3 873.1,336.4 874.9,332.1 C876.7,327.8 874.9,299.289401 874.9,299.289401 L910.293457,303.521484 C937.44047,305.773828 957.975984,294.2 971.9,268.8 C992.786024,230.7 997.2,197.7 997.2,197.7 C997.2,197.7 966.7,204.7 940.7,189.2 C914.7,173.7 887.5,157.7 879.7,166.7 C871.9,175.7 859.7,203.9 853.2,198.9 C846.7,193.9 846,186.7 845.7,179.1 C845.4,171.5 831.7,161.6 820,167.9 C808.2,174.1 798.5,195.4 806.8,210.1 C815.1,224.8 823.8,224.6 823.8,224.6 L790.8,301.6 L781.3,306.1 L717.1,323.6 C717.1,323.6 727.1,397.8 787.9,420.8 C848.6,443.8 888.6,419.3 888.6,419.3 C888.6,419.3 913.4,407.3 924.8,395.5 C936.2,383.7 934.9,380.1 934.9,380.1 Z" id="Path" fill="#CAAA92" fill-rule="nonzero"></path>
        <path d="M450.4,515.6 C450.4,515.6 419.1,558.3 396.1,570.9 C385.1,576.9 356.4,563 345.9,556.1 C303.4,528.1 241.3,472.2 241.3,472.2 L233,437.8 C233,437.8 227.9,425.4 224.9,427 C221.9,428.6 221.3,445.1 221.3,447 C221.3,448.8 222.1,465.3 220.5,465 C218.8,464.7 183.8,442.9 183.8,442.9 C183.8,442.9 171.5,436.7 169.9,440 C168.3,443.4 183.8,461.1 183.8,461.1 C183.8,461.1 157,443.3 154.3,447.3 C151.6,451.3 163.6,464.3 163.6,464.3 L185.2,486.5 C185.2,486.5 156.8,469.2 155.6,472.2 C154.4,475.2 161.6,484.2 162.3,485.1 C163.1,485.9 190.2,508.5 190.2,508.5 C190.2,508.5 158.6,498.9 159.3,504.7 C160,510.5 170.8,514.3 170.8,514.3 L211.5,531.6 C211.5,531.6 246.2,568.3 258,580.3 C385.8,710.6 430.5,688.6 430.5,688.6 L475.3,666.6 L527.3,617.3 L480,561.3 L450.4,515.6 Z" id="Path" fill="#981313" fill-rule="nonzero"></path>
        <path d="M1002.4,672.6 C1002.4,672.6 1029.9,705.6 1064.9,708.1 C1099.9,710.6 1131.9,682.1 1131.9,682.1 L1227.4,559.1 L1272.9,496.6 L1278.9,495.6 L1273.9,462.6 C1273.9,462.6 1274.1,456.3 1279.4,451.9 C1284.7,447.6 1302.1,432.9 1300.4,428.6 C1298.7,424.3 1277.4,426.9 1266.1,435.9 C1254.8,444.9 1199.4,494.6 1199.4,494.6 L1143.4,549.6 C1143.4,549.6 1106.2,584.5 1089.1,578.6 C1075.4,573.9 1064.8,549.9 1064.8,549.9 C1064.8,549.9 1060.1,590.2 1040.1,620.2 C1020.1,650.2 1002.4,672.6 1002.4,672.6 Z" id="Path" fill="#981313" fill-rule="nonzero"></path>
        <path d="M1339.4,420 C1339.4,420 1308.9,430.3 1311.7,436.5 C1314.5,442.7 1331,437.3 1332.2,437 C1333.4,436.7 1349.2,430 1349.5,422.8 C1349.8,415.6 1342.8,412.8 1342.8,412.8 L1339.4,420 Z" id="Path" fill="#AF2424" fill-rule="nonzero"></path>
        <path d="M1343.1,434.1 C1343.1,434.1 1346.8,441.6 1343.9,445.6 C1341.1,449.6 1330.9,451.6 1330.9,451.6 C1330.9,451.6 1310.9,457.9 1309.2,454.4 C1307.5,450.9 1316,443.4 1320.4,441.4 C1324.8,439.5 1343.1,434.1 1343.1,434.1 Z" id="Path" fill="#AF2424" fill-rule="nonzero"></path>
        <path d="M1341.8,456.3 C1341.8,456.3 1342.6,463.6 1338.5,467.5 C1334.3,471.3 1315.3,480.3 1314,477.8 C1312.7,475.3 1318.5,467.6 1319.7,466.8 C1320.9,466 1331.2,455.1 1331.5,454.6 C1331.8,454.1 1338.2,452.3 1338.2,452.3 L1341.8,456.3 Z" id="Path" fill="#AF2424" fill-rule="nonzero"></path>
        <path d="M1337.8,480.6 C1337.8,480.6 1337,487.9 1332.6,492.1 C1328.3,496.3 1313.6,502.4 1312.3,498.4 C1311,494.4 1325.1,484.2 1325.1,484.2 L1327.6,478 C1327.6,478.1 1335.3,478.3 1337.8,480.6 Z" id="Path" fill="#AF2424" fill-rule="nonzero"></path>
        <polygon id="Path" fill="#981313" fill-rule="nonzero" points="825.4 1400.6 830.9 1452.1 865.4 1462.6 906.4 1455.6 927.4 1432.1 915.9 1393.6 873.8 1401"></polygon>
        <path d="M985.1,1471 L956.9,1455.9 C938.6,1446.1 925.7,1428 922.4,1407.5 L922.4,1407.4 L919.5,1393.4 C919.2,1391.8 917.6,1390.7 916,1391.1 C914.4,1391.4 913.3,1393 913.7,1394.6 L916.6,1408.6 C917.9,1416.4 920.5,1423.9 924.1,1430.8 C920.6,1431.2 914,1432 911,1432.6 C897.9,1435.5 889,1440.1 881.4,1448.1 C876.8,1453 870.7,1455.1 863.3,1454.3 C845.4,1452.4 834.9,1442.9 832.4,1440.4 L830.7,1423.7 C830.6,1417.9 833.9,1413.2 840.5,1409.6 C846.4,1406.4 852.7,1405.3 852.8,1405.3 C854.4,1405 855.4,1403.6 855.3,1402.1 C855.2,1400.5 853.8,1399.3 852.3,1399.4 L828.2,1399.9 C827.7,1398.6 826.5,1397.8 825.1,1397.9 C823.5,1398.1 822.3,1399.5 822.4,1401.2 L824.7,1423.6 C824.7,1423.8 824.7,1424 824.7,1424.2 C824.7,1424.8 824.8,1425.4 824.9,1426.1 C824.9,1426.3 825,1426.4 825,1426.6 L833.2,1506.2 C833.9,1513.5 840.1,1519.1 847.5,1519.1 L988.9,1519.1 C997.1,1519.1 1003.8,1512.4 1003.8,1504.2 L1003.8,1501.6 C1003.4,1488.8 996.4,1477.1 985.1,1471 Z" id="Path" fill="#1A1A1A" fill-rule="nonzero"></path>
        <path d="M723.4,349.3 C723.4,349.3 784.7,336 800.7,315.3 C816.7,294.6 827.4,263.3 830.7,254.6 C834,245.9 832.6,226.8 824.4,222.1 L806.7,267.3 L788.7,302.6 L761.4,310.6 L717.9,323.1 L723.4,349.3 Z" id="Path" fill="#FFFFFF" fill-rule="nonzero"></path>
        <path d="M387.4,245.4 C300.3,322.2 255,418.9 187.6,373.3 C93.3,309.6 183.2,152.5 268.7,77.5 C358.7,-1.5 548,-36.8 576.4,73.3 C593.3,138.9 477.5,165.9 387.4,245.4 Z" id="Path" fill="#7A1111" fill-rule="nonzero"></path>
        <path d="M148.5,607 C134.6,654.2 130.1,727.6 80.9,726.2 C31.7,724.8 3.4,672.5 4.8,623.3 C6.2,574.1 37.5,520.5 86.7,521.9 C136,523.3 162.4,559.8 148.5,607 Z" id="Path" fill="#7A1111" fill-rule="nonzero"></path>
        <path d="M605.7,1309.6 C605.5,1309.6 604.3,1309.5 602.3,1309.4 C596,1309 581.3,1307.9 565,1304.9 C543.7,1301 519.1,1287.8 518.9,1287.6 C518,1287.1 517,1287.1 516.1,1287.6 C515.2,1288 514.6,1288.9 514.5,1289.9 C514.3,1291.7 508.8,1333.8 511.7,1354.3 C514.8,1376.3 535.8,1382.5 536.6,1382.8 L568.8,1392.3 C569.1,1392.4 569.4,1392.4 569.7,1392.4 C570.9,1392.4 572,1391.7 572.5,1390.5 C573.1,1389 572.4,1387.4 571,1386.7 C570.7,1386.6 544.4,1373.9 539,1355.5 C537,1348.7 538.1,1342.1 542.3,1335.4 C554.8,1315.4 592,1315.1 602.5,1315.5 C604.3,1315.6 605.4,1315.6 605.4,1315.6 C607,1315.6 608.4,1314.4 608.5,1312.8 C608.5,1311.2 607.3,1309.8 605.7,1309.6 Z" id="Path" fill="#FFFFFF" fill-rule="nonzero"></path>
        <path d="M842.5,1399.8 C842.3,1399.6 820.2,1384.3 817.1,1359.6 C815.6,1348.1 817.6,1339.4 822.8,1333.7 C829.9,1325.9 841.2,1326.3 841.4,1326.3 C843,1326.4 844.4,1325.1 844.5,1323.5 C844.6,1321.9 843.4,1320.4 841.7,1320.3 L789,1316.3 C788.1,1316.2 787.3,1316.6 786.6,1317.2 C785.9,1317.8 785.7,1318.7 785.7,1319.6 C785.9,1321.8 789.9,1373.4 795.3,1384.7 C798.4,1391.3 807.1,1396.8 821,1401 C830.9,1404 839.9,1405.3 840.3,1405.4 C840.4,1405.4 840.6,1405.4 840.7,1405.4 C841.9,1405.4 843,1404.7 843.5,1403.5 C844.1,1402.1 843.6,1400.6 842.5,1399.8 Z" id="Path" fill="#FFFFFF" fill-rule="nonzero"></path>
        <path d="M240.9,471 C240.9,471 233.2,489.8 251.4,505.6 C279.7,530.3 332.7,568 350.4,578.6 C377.7,594.9 380.4,618.9 397.4,614.6 C413.8,610.4 405.4,594.6 419.1,573.6 C446.9,530.9 461.4,536.6 461.4,536.6 L449.9,517.4 L403.8,565 C403.8,565 395.8,574 382.8,571.3 C369.8,568.6 346.7,554.4 335.1,548 C293.8,525 240.9,471 240.9,471 Z" id="Path" fill="#FFFFFF" fill-rule="nonzero"></path>
        <path d="M1325.4,486.6 C1325.2,486.6 1325,486.6 1324.8,486.5 C1323.2,486.2 1322.1,484.6 1322.5,482.9 L1324.5,473.6 C1324.8,472 1326.4,470.9 1328.1,471.3 C1329.7,471.6 1330.8,473.2 1330.4,474.9 L1328.4,484.2 C1328.1,485.7 1326.8,486.6 1325.4,486.6 Z" id="Path" fill="#1A1A1A" fill-rule="nonzero"></path>
        <path d="M1351.4,385.5 C1351.4,385.4 1351.4,385.4 1351.4,385.5 C1351.4,385.3 1351.4,385.3 1351.4,385.2 C1351.4,385.1 1351.4,385 1351.4,385 C1350.5,374.6 1320.2,371.7 1302.2,371.7 C1284.2,371.7 1254,374.5 1253,384.9 C1253,384.9 1253,384.9 1253,385 C1253,385.2 1253,385.3 1253,385.5 C1253,385.6 1253,385.6 1253,385.7 C1253,386.3 1253.1,386.9 1253.4,387.5 L1264.4,436.7 C1264.7,438.1 1266,439 1267.3,439 C1267.5,439 1267.7,439 1268,438.9 C1269.6,438.5 1270.6,436.9 1270.3,435.3 L1260.9,393.5 C1271.3,397.8 1289.7,399.2 1302.3,399.2 C1314.7,399.2 1332.9,397.9 1343.4,393.6 L1336.9,419.2 C1336.5,420.8 1337.5,422.4 1339.1,422.8 C1339.3,422.9 1339.6,422.9 1339.8,422.9 C1341.1,422.9 1342.4,422 1342.7,420.6 L1351.1,387.5 C1351.3,386.9 1351.5,386.3 1351.5,385.7 C1351.4,385.6 1351.4,385.5 1351.4,385.5 Z" id="Path" fill="#1A1A1A" fill-rule="nonzero"></path>
        <path d="M1322.3,495.7 C1320.7,495.3 1319.1,496.3 1318.7,497.9 L1308.5,540.9 C1307.5,545.2 1303.9,546.7 1301.2,546.7 C1298.4,546.7 1294.8,545.1 1293.9,540.8 L1276,461 C1275.6,459.4 1274,458.4 1272.4,458.7 C1270.8,459.1 1269.8,460.7 1270.1,462.3 L1288,542.1 C1289.4,548.4 1294.7,552.6 1301.1,552.7 L1301.2,552.7 C1307.6,552.7 1312.9,548.5 1314.4,542.3 L1324.6,499.3 C1324.9,497.7 1323.9,496.1 1322.3,495.7 Z" id="Path" fill="#1A1A1A" fill-rule="nonzero"></path>
        <path d="M1316,442.8 C1311.2,442.8 1308.6,441.6 1307.8,439.1 C1307.2,437.3 1307.4,435.4 1308.4,433.5 C1310.5,429.6 1316.1,425.7 1325.7,421.7 C1332.4,418.9 1338.5,417 1338.8,416.9 C1340.4,416.4 1342.1,417.3 1342.5,418.9 C1343,420.5 1342.1,422.2 1340.5,422.6 C1323.5,427.7 1315,433.7 1313.6,436.2 C1313.5,436.3 1313.5,436.4 1313.5,436.5 C1316.8,437.2 1327.7,436 1336.8,431.5 C1342.1,428.9 1345.3,425.8 1345.8,422.7 C1346.7,417.1 1341.4,415.5 1341.2,415.4 C1339.6,414.9 1338.7,413.3 1339.2,411.7 C1339.7,410.1 1341.3,409.2 1342.9,409.7 C1346.6,410.8 1353.1,415.1 1351.7,423.7 C1349.6,436.2 1328.4,441.8 1318.5,442.5 C1317.7,442.8 1316.8,442.8 1316,442.8 Z" id="Path" fill="#1A1A1A" fill-rule="nonzero"></path>
        <path d="M1312.7,458.6 C1311.7,458.6 1310.9,458.5 1310.1,458.4 C1307,457.8 1305.9,456.2 1305.6,454.9 C1303.7,447.8 1313.5,441.2 1322.5,437.7 C1331.5,434.2 1340.8,430.7 1340.9,430.7 C1341.6,430.4 1342.4,430.4 1343.1,430.7 C1343.5,430.9 1347.3,432.5 1348.5,436.6 C1349.4,439.7 1348.6,443 1346,446.6 C1341.6,453 1322.1,458.6 1312.7,458.6 Z M1311.5,452.6 C1316.7,453.4 1337.7,448.1 1341.1,443.2 C1342.1,441.8 1343.1,439.9 1342.7,438.4 C1342.5,437.7 1342,437.2 1341.6,436.8 C1338.7,437.9 1331.5,440.6 1324.6,443.3 C1316.3,446.6 1312.1,450.6 1311.5,452.6 Z" id="Shape" fill="#1A1A1A" fill-rule="nonzero"></path>
        <path d="M1314.3,482 C1313,482 1311.5,481.7 1310.4,480.7 C1309.6,479.9 1309.2,478.9 1309.2,477.7 C1309.2,472.2 1322,459.1 1329.6,451.8 C1329.8,451.6 1330.1,451.4 1330.4,451.2 L1336,448.6 C1336.7,448.3 1337.5,448.2 1338.2,448.5 C1338.6,448.6 1341.9,449.9 1343.6,453.6 C1345,456.5 1344.9,460 1343.4,464 C1340.7,471 1324.2,480 1316.9,481.6 C1316.5,481.7 1315.5,482 1314.3,482 Z M1333.5,456.4 C1326.4,463.2 1318.8,471.6 1316.2,475.7 C1322.3,474.2 1336.4,466 1338,461.8 C1339.6,457.5 1338.4,455.5 1337.3,454.6 L1333.5,456.4 Z" id="Shape" fill="#1A1A1A" fill-rule="nonzero"></path>
        <path d="M1314.8,502.4 C1313.4,502.4 1312.1,502.2 1311,501.7 C1309.5,501 1308.5,499.7 1308.3,498.2 C1307.3,493.1 1315.7,486.8 1322.9,482.4 C1324.3,481.5 1326.2,482 1327,483.4 C1327.9,484.8 1327.4,486.7 1326,487.5 C1321.1,490.5 1316.3,494.3 1314.7,496.4 C1316.7,496.4 1320.8,495.5 1325.4,493.1 C1333,489.2 1334.4,486 1334.7,484 C1334.9,482.9 1334.6,482.5 1334.4,482.4 C1333.4,481.3 1329.9,481.2 1327.9,481.4 C1326.3,481.6 1324.7,480.5 1324.5,478.9 C1324.3,477.3 1325.4,475.7 1327,475.5 C1328.3,475.3 1335.1,474.6 1338.6,478.2 C1339.8,479.4 1341,481.5 1340.5,485 C1339.6,490.2 1335.7,494.5 1328,498.4 C1324.2,500.5 1319,502.4 1314.8,502.4 Z" id="Path" fill="#1A1A1A" fill-rule="nonzero"></path>
        <path d="M647.7,1390.7 C646,1390.5 644.6,1391.7 644.4,1393.4 L639.6,1440.6 C637.1,1443.1 626.6,1452.5 608.8,1454.4 C601.4,1455.2 595.3,1453.1 590.7,1448.2 C587.7,1445 584.5,1442.3 581,1440.2 C575.6,1436.8 569.3,1434.5 561.2,1432.7 C558.1,1432 551.6,1431.3 548.1,1430.9 C551.8,1424 554.3,1416.5 555.6,1408.6 L559,1387.8 C559.3,1386.2 558.2,1384.6 556.5,1384.4 C554.9,1384.1 553.3,1385.2 553.1,1386.9 L549.7,1407.7 C546.3,1428.2 533.4,1446.2 515.2,1456.1 L487,1471.2 C475.7,1477.3 468.6,1489 468.6,1501.9 L468.6,1504.5 C468.6,1512.7 475.3,1519.4 483.5,1519.4 L624.9,1519.4 C632.3,1519.4 638.4,1513.9 639.2,1506.5 L650.7,1394.2 C650.6,1392.3 649.4,1390.8 647.7,1390.7 Z" id="Path" fill="#1A1A1A" fill-rule="nonzero"></path>
        <path d="M847.8,282.6 C847.8,282.6 848.2,288.2 853.1,294.6 C864.4,309.3 880.4,320.7 875.5,329.3 L888,304.6 L862.5,294.6 L847.8,282.6 Z" id="Path" fill="#1A1A1A" fill-rule="nonzero"></path>
        <path d="M890.7,303.6 C890.4,302.8 889.8,302.2 889,301.9 L864,292 L849.7,280.3 C848.8,279.5 847.5,279.4 846.4,280 C845.3,280.6 844.7,281.7 844.8,282.9 C844.8,283.2 845.3,289.5 850.8,296.5 C854.2,300.9 858,305 861.6,308.8 C868.5,316.2 874.9,323.2 873.2,327.4 L872.9,327.9 C872.2,329.4 872.7,331.1 874.2,331.9 C874.7,332.1 875.1,332.3 875.6,332.3 C876.6,332.3 877.7,331.8 878.2,330.8 C878.4,330.5 878.5,330.2 878.7,329.8 L890.7,306 C891,305.2 891,304.4 890.7,303.6 Z" id="Path" fill="#1A1A1A" fill-rule="nonzero"></path>
        <path d="M870.2,511.9 C853.6,499.4 830,502.6 817.4,519.2 C811.3,527.2 808.7,537.1 810.1,547.1 C811.5,557.1 816.7,565.9 824.7,572 C831.5,577.1 839.5,579.6 847.4,579.6 C858.8,579.6 870.1,574.5 877.5,564.7 C890,548.1 886.7,524.5 870.2,511.9 Z M828.3,567.2 C821.6,562.1 817.2,554.7 816,546.3 C814.8,537.9 817,529.6 822.1,522.8 C822.2,522.6 822.4,522.5 822.5,522.3 L873,560.5 C872.9,560.7 872.7,560.9 872.6,561 C862.2,575 842.3,577.8 828.3,567.2 Z" id="Shape" fill="#AF2424" fill-rule="nonzero"></path>
        <path d="M680,636 C671.5,630.7 661.4,629 651.6,631.3 C641.8,633.6 633.5,639.5 628.2,648.1 C622.9,656.6 621.2,666.7 623.5,676.5 C625.8,686.3 631.7,694.6 640.3,699.9 C646.5,703.7 653.3,705.6 660.1,705.6 C672.7,705.6 685,699.3 692.1,687.8 C703.1,670.2 697.6,647 680,636 Z M687,684.7 C677.8,699.5 658.2,704.1 643.4,694.9 C643.2,694.8 643,694.7 642.8,694.5 L676.2,640.8 C676.4,640.9 676.6,641 676.8,641.1 C691.7,650.3 696.2,669.9 687,684.7 Z" id="Shape" fill="#AF2424" fill-rule="nonzero"></path>
        <path d="M870.1,783.5 C857.7,783.5 847.6,793.6 847.6,806 C847.6,818.4 857.7,828.5 870.1,828.5 C882.5,828.5 892.6,818.4 892.6,806 C892.6,793.6 882.5,783.5 870.1,783.5 Z" id="Path" fill="#1A1A1A" fill-rule="nonzero"></path>
        <path d="M832,604.3 L820.8,589.2 C820.3,588.6 819.6,588.1 818.8,588 C818,587.9 817.2,588.1 816.6,588.6 L801.5,599.8 C800.2,600.8 799.9,602.7 800.9,604 L812.1,619.1 C812.6,619.7 813.3,620.2 814.1,620.3 C814.2,620.3 814.4,620.3 814.5,620.3 C815.1,620.3 815.8,620.1 816.3,619.7 L831.4,608.5 C832.7,607.5 833,605.7 832,604.3 Z" id="Path" fill="#1A1A1A" fill-rule="nonzero"></path>
        <path d="M676.8,569.8 C676.3,569.2 675.6,568.8 674.8,568.7 L647.1,566.3 C645.4,566.2 644,567.4 643.9,569 L641,602.4 C640.9,603.2 641.2,604 641.7,604.6 C642.2,605.2 642.9,605.6 643.7,605.7 L671.4,608.1 C671.5,608.1 671.6,608.1 671.7,608.1 C673.2,608.1 674.5,606.9 674.7,605.4 L677.6,572 C677.6,571.2 677.3,570.4 676.8,569.8 Z" id="Path" fill="#1A1A1A" fill-rule="nonzero"></path>
        <path d="M662.864,1227.9 C669.523,1225.69 672.77,1217.41 670.116,1209.38 C667.461,1201.36 659.912,1196.64 653.252,1198.85 C646.593,1201.05 643.347,1209.34 646.001,1217.36 C648.655,1225.38 656.205,1230.1 662.864,1227.9 Z" id="Path" fill="#1A1A1A" fill-rule="nonzero"></path>
        <path d="M659.5,1231.4 C656.7,1231.4 653.9,1230.6 651.4,1228.9 C647.6,1226.5 644.7,1222.7 643.2,1218.2 C641.7,1213.7 641.8,1208.9 643.4,1204.7 C645.1,1200.4 648.3,1197.2 652.3,1195.9 C656.4,1194.6 660.8,1195.2 664.8,1197.7 C668.6,1200.1 671.5,1203.9 673,1208.4 C674.5,1212.9 674.4,1217.7 672.8,1221.9 C671.1,1226.2 667.9,1229.4 663.9,1230.7 C662.5,1231.2 661,1231.4 659.5,1231.4 Z M656.6,1201.2 C655.8,1201.2 655,1201.3 654.2,1201.6 C651.9,1202.4 650,1204.3 649,1206.9 C647.9,1209.8 647.9,1213.1 648.9,1216.3 C650,1219.5 652,1222.2 654.6,1223.8 C657,1225.3 659.6,1225.7 662,1224.9 C664.3,1224.1 666.2,1222.2 667.2,1219.6 C668.3,1216.7 668.3,1213.4 667.3,1210.2 C666.3,1207 664.2,1204.3 661.6,1202.7 C660,1201.7 658.3,1201.2 656.6,1201.2 Z" id="Shape" fill="#1A1A1A" fill-rule="nonzero"></path>
        <path d="M1304.3,428.9 C1303.6,426.7 1301.9,425 1299.6,424.1 C1292.1,421.2 1278.4,426.2 1269,431.5 C1255.3,439.2 1216.7,473.1 1194.8,495.5 C1147.1,544.2 1112.1,573.5 1098.7,575.9 C1080,579.2 1068.4,548.4 1068.3,548.1 C1067.7,546.5 1066,545.8 1064.4,546.3 C1062.8,546.9 1062.1,548.6 1062.6,550.2 C1062.7,550.4 1063.1,551.5 1063.8,553.2 C1063.7,553.4 1063.6,553.6 1063.5,553.8 L1059.3,568.3 C1059,569.4 1059.4,570.7 1060.3,571.5 C1060.5,571.6 1064.4,575 1065.2,583.5 C1065.4,585.8 1065.5,588.1 1065.5,590.4 C1065.6,597.7 1065.7,606.8 1075.1,608.1 C1075.4,608.1 1075.6,608.2 1076,608.2 C1078.4,608.2 1084,606.3 1104.7,587.5 C1116,577.3 1126.5,566.9 1126.6,566.8 L1126.7,566.7 C1148.3,550.3 1176.1,523.4 1199.1,499.8 C1220.3,478.1 1258.8,444.1 1271.9,436.8 C1282.1,431.1 1293,428.1 1297.4,429.8 C1298.3,430.1 1298.5,430.5 1298.6,430.9 C1299.4,433.2 1292.4,438 1288.2,440.9 C1284.8,443.2 1281.3,445.6 1278.9,448.1 C1270.8,456.2 1268.4,461.8 1268.3,462 C1267.7,463.5 1268.4,465.3 1269.9,465.9 C1271.4,466.6 1273.2,465.9 1273.8,464.3 C1273.8,464.3 1276,459.4 1283.2,452.2 C1285.3,450.1 1288.5,447.9 1291.7,445.7 C1298.9,440.8 1306.5,435.6 1304.3,428.9 Z" id="Path" fill="#1A1A1A" fill-rule="nonzero"></path>
        <path d="M1289.2,1371.2 C1289.2,1371.2 1320,1360.7 1331.3,1393 C1331.3,1393 1319.2,1402.2 1302.7,1393.8 C1290.3,1388 1289.2,1371.2 1289.2,1371.2 Z" id="Path" fill="#FFFFFF" fill-rule="nonzero"></path>
        <path d="M1168.4,1513.8 C1170.4,1504.9 1204.1,1505.4 1212.5,1497.6 C1220.9,1489.8 1223.1,1429.4 1275,1430.7 C1319.9,1431.8 1317.7,1475.9 1324.9,1492.1 C1332.6,1509.3 1388.2,1501.9 1391.8,1514.7 C1395.3,1527.1 1371.4,1528.1 1348,1525 C1331.2,1522.8 1320.9,1520 1315.6,1525.6 C1305.9,1535.8 1344,1552.4 1329.5,1559.6 C1315,1566.9 1290.9,1534.9 1270.4,1537.8 C1252.8,1540.3 1238.9,1557.9 1226.9,1551.7 C1216,1546.1 1227.5,1534.1 1219.6,1526.6 C1208.2,1515.5 1163.9,1533.9 1168.4,1513.8 Z" id="Path" fill="#CAAA92" fill-rule="nonzero"></path>
        <path d="M1324.8,1563.6 C1317.4,1563.6 1309.1,1558.2 1300.4,1552.6 C1290.3,1546.1 1279.9,1539.4 1270.8,1540.7 C1263.8,1541.7 1257.3,1545.3 1251,1548.9 C1242.1,1553.9 1233.7,1558.6 1225.5,1554.4 C1217.8,1550.5 1218.6,1543.6 1219.2,1538.6 C1219.7,1534.1 1219.9,1531.2 1217.5,1528.8 C1213.4,1524.9 1202.5,1525.6 1192.8,1526.3 C1181.4,1527.1 1171.6,1527.7 1167.1,1522.5 C1165.1,1520.2 1164.5,1517 1165.4,1513.1 C1166.9,1506.4 1177.5,1504.3 1189.7,1501.9 C1197.9,1500.3 1207.1,1498.4 1210.3,1495.4 C1211.8,1494 1213.7,1488.2 1215.5,1482.7 C1222.3,1461.7 1233.8,1426.7 1274.9,1427.6 C1312.3,1428.5 1319.2,1458 1323.7,1477.4 C1325,1482.8 1326,1487.4 1327.5,1490.7 C1330.9,1498.3 1348.8,1500.5 1363.2,1502.3 C1379.5,1504.3 1392.3,1505.8 1394.6,1513.7 C1395.8,1518.1 1394.3,1521.1 1392.8,1522.9 C1389.7,1526.5 1379.6,1532 1347.5,1527.8 C1344.6,1527.4 1341.9,1527 1339.4,1526.7 C1328.3,1525.1 1321,1524 1317.7,1527.5 C1315.2,1530.2 1319.5,1534.8 1326,1541 C1331.4,1546.2 1336.5,1551.2 1335.7,1556.3 C1335.3,1558.8 1333.7,1560.7 1330.8,1562.2 C1329,1563.2 1326.9,1563.6 1324.8,1563.6 Z M1273.1,1534.6 C1283.5,1534.6 1294.1,1541.5 1303.7,1547.6 C1313.3,1553.8 1322.5,1559.7 1328.2,1556.8 C1329.2,1556.3 1329.8,1555.8 1329.9,1555.4 C1330.2,1553.4 1325.2,1548.6 1321.9,1545.4 C1315.1,1538.8 1306.6,1530.6 1313.4,1523.4 C1318.9,1517.6 1327.4,1518.9 1340.3,1520.8 C1342.8,1521.2 1345.5,1521.6 1348.3,1521.9 C1368.7,1524.6 1384.4,1523.4 1388.2,1519 C1388.8,1518.4 1389.3,1517.4 1388.8,1515.4 C1387.7,1511.3 1373.1,1509.6 1362.5,1508.3 C1345,1506.2 1326.8,1504 1322,1493.2 C1320.3,1489.4 1319.2,1484.5 1317.8,1478.8 C1313.2,1459 1307.5,1434.4 1274.7,1433.6 C1274.2,1433.6 1273.7,1433.6 1273.1,1433.6 C1237.7,1433.6 1227.7,1464.2 1221.1,1484.5 C1218.7,1491.9 1217,1497.2 1214.3,1499.7 C1209.8,1503.9 1200.6,1505.7 1190.8,1507.7 C1183.7,1509.1 1171.8,1511.5 1171.2,1514.4 C1170.6,1517.3 1171.4,1518.2 1171.6,1518.6 C1174.1,1521.5 1183.8,1520.9 1192.3,1520.3 C1203.8,1519.5 1215.6,1518.7 1221.6,1524.5 C1226.3,1529 1225.6,1534.7 1225.1,1539.3 C1224.5,1544.5 1224.4,1547.1 1228.2,1549.1 C1233.6,1551.9 1240.3,1548.1 1248.1,1543.7 C1254.5,1540.1 1261.8,1536 1270,1534.8 C1271,1534.7 1272.1,1534.6 1273.1,1534.6 Z" id="Shape" fill="#1A1A1A" fill-rule="nonzero"></path>
        <path d="M1288.8,1371 C1288.8,1371 1278.4,1340.1 1310.7,1329 C1310.7,1329 1319.9,1341.1 1311.4,1357.6 C1305.5,1369.9 1288.8,1371 1288.8,1371 Z" id="Path" fill="#FFFFFF" fill-rule="nonzero"></path>
        <path d="M1334.1,1392.1 C1328.2,1375 1317,1369 1307.2,1367.3 C1309.9,1365.2 1312.4,1362.5 1314.1,1359 C1323.3,1341 1313.5,1327.7 1313.1,1327.2 C1312.3,1326.2 1311,1325.8 1309.7,1326.2 C1280.4,1336.3 1283.5,1361.7 1285.3,1369.6 C1285,1370.2 1284.8,1370.8 1284.8,1371.5 C1285.4,1398.5 1275.1,1413.8 1271.8,1414.8 C1270.8,1414.8 1269.8,1415.3 1269.1,1416 C1257.5,1417.4 1248.5,1427.3 1248.5,1439.3 C1248.5,1452.2 1259,1462.8 1272,1462.8 C1284.9,1462.8 1295.5,1452.3 1295.5,1439.3 C1295.5,1429.4 1289.4,1421 1280.7,1417.5 C1285.5,1411.7 1289.9,1401.4 1291.9,1388.1 C1294.1,1391.5 1297.2,1394.6 1301.4,1396.6 C1307.1,1399.5 1312.3,1400.5 1316.8,1400.5 C1326.5,1400.5 1332.9,1395.8 1333.2,1395.5 C1334.1,1394.6 1334.5,1393.3 1334.1,1392.1 Z M1309.4,1332.6 C1311.3,1336.3 1314.4,1345.1 1308.7,1356.3 C1304.8,1364.2 1295.4,1366.9 1290.9,1367.7 C1289.4,1360.9 1287.3,1341.5 1309.4,1332.6 Z M1303.9,1391.2 C1296.7,1387.7 1293.9,1379.7 1292.8,1374.9 C1292.8,1374.4 1292.8,1373.9 1292.8,1373.4 C1293.3,1373.3 1293.9,1373.2 1294.5,1373 C1302.5,1371.7 1319.3,1371.6 1327.5,1391.8 C1323.9,1393.7 1315.1,1396.9 1303.9,1391.2 Z" id="Shape" fill="#1A1A1A" fill-rule="nonzero"></path>
        <path d="M654.1,1521.4 L293.4,1521.4 C291.7,1521.4 290.4,1520.1 290.4,1518.4 C290.4,1516.7 291.7,1515.4 293.4,1515.4 L654.1,1515.4 C655.8,1515.4 657.1,1516.7 657.1,1518.4 C657.1,1520.1 655.8,1521.4 654.1,1521.4 Z" id="Path" fill="#1A1A1A" fill-rule="nonzero"></path>
        <path d="M1048.8,1521.4 L810.1,1521.4 C808.4,1521.4 807.1,1520.1 807.1,1518.4 C807.1,1516.7 808.4,1515.4 810.1,1515.4 L1048.8,1515.4 C1050.5,1515.4 1051.8,1516.7 1051.8,1518.4 C1051.8,1520.1 1050.4,1521.4 1048.8,1521.4 Z" id="Path" fill="#1A1A1A" fill-rule="nonzero"></path>
        <path d="M716.1,1521.4 L680.1,1521.4 C678.4,1521.4 677.1,1520.1 677.1,1518.4 C677.1,1516.7 678.4,1515.4 680.1,1515.4 L716.1,1515.4 C717.8,1515.4 719.1,1516.7 719.1,1518.4 C719.1,1520.1 717.8,1521.4 716.1,1521.4 Z" id="Path" fill="#1A1A1A" fill-rule="nonzero"></path>
        <path d="M931.19,222.371 C933.73,215.301 928.11,206.818 918.65,203.425 C909.19,200.031 899.47,203.012 896.93,210.082 C894.39,217.152 900.01,225.635 909.47,229.028 C918.93,232.422 928.66,229.441 931.19,222.371 Z" id="Path" fill="#FFFFFF" fill-rule="nonzero"></path>
        <path d="M919.7,200.6 C914.5,198.7 909,198.5 904.3,199.9 C899.3,201.4 895.6,204.7 894.1,209 C892.5,213.3 893.3,218.1 896.2,222.5 C898.9,226.6 903.3,229.9 908.5,231.8 C911.4,232.9 914.5,233.4 917.4,233.4 C919.6,233.4 921.8,233.1 923.9,232.5 C928.9,231 932.6,227.7 934.1,223.4 C937.2,214.8 930.7,204.6 919.7,200.6 Z M901.2,219.3 C899.4,216.5 898.8,213.6 899.7,211.1 C900.6,208.6 902.8,206.7 906,205.7 C907.5,205.2 909.1,205 910.7,205 C912.9,205 915.3,205.4 917.6,206.2 C921.8,207.7 925.1,210.4 927,213.3 C917.6,210 908,213 905.5,220 C905.1,221 905,222 904.9,223.1 C903.5,222.1 902.2,220.7 901.2,219.3 Z" id="Shape" fill="#1A1A1A" fill-rule="nonzero"></path>
        <path d="M976.08,238.129 C978.62,231.058 973,222.576 963.54,219.183 C954.08,215.789 944.35,218.77 941.82,225.84 C939.28,232.91 944.9,241.393 954.36,244.786 C963.82,248.179 973.54,245.199 976.08,238.129 Z" id="Path" fill="#FFFFFF" fill-rule="nonzero"></path>
        <path d="M920,197.3 C914.6,197.3 910.6,196.1 910.3,196 C908.7,195.5 907.8,193.8 908.3,192.3 C908.8,190.7 910.5,189.8 912,190.3 C912.1,190.3 920.2,192.7 927.9,190.1 C929.5,189.6 931.2,190.4 931.7,192 C932.2,193.6 931.4,195.3 929.8,195.8 C926.5,196.9 923,197.3 920,197.3 Z" id="Path" fill="#1A1A1A" fill-rule="nonzero"></path>
        <path d="M974.2,216.1 C974.1,216.1 974.1,216.1 974,216.1 C962.2,215.2 957.3,205.9 957.1,205.5 C956.3,204 956.9,202.2 958.4,201.5 C959.9,200.7 961.7,201.3 962.4,202.8 C962.6,203.1 966.1,209.6 974.5,210.2 C976.2,210.3 977.4,211.8 977.3,213.4 C977.1,214.9 975.7,216.1 974.2,216.1 Z" id="Path" fill="#1A1A1A" fill-rule="nonzero"></path>
        <path d="M964.6,216.4 C953.6,212.4 942.1,216.2 939,224.8 C938.9,225 938.9,225.3 938.8,225.5 C937.9,227.1 930.3,240.4 937.4,248.4 C938.9,250.1 940.3,251.4 941.5,252.5 C944.5,255.2 944.7,255.7 944.2,257.4 C943.8,259 942.3,260.5 940.2,261.5 C937.1,262.9 931.9,263.6 926.6,261.1 C925.1,260.4 923.3,261 922.6,262.6 C921.9,264.1 922.5,265.9 924.1,266.6 C927.3,268.1 930.7,268.8 934,268.8 C937.1,268.8 940.1,268.2 942.7,266.9 C946.5,265.1 949.1,262.3 950,259 C951.4,253.6 948.6,251 945.5,248.2 C944.4,247.2 943.1,246 941.8,244.5 C940.2,242.7 940.1,240.1 940.5,237.4 C943.1,241.8 947.6,245.6 953.3,247.6 C956.3,248.7 959.3,249.2 962.1,249.2 C969.9,249.2 976.6,245.5 978.9,239.2 C982.1,230.6 975.6,220.4 964.6,216.4 Z M944.6,226.9 C946,223.1 950.4,220.9 955.7,220.9 C957.9,220.9 960.2,221.3 962.5,222.1 C966.7,223.6 970,226.3 971.9,229.2 C962.5,225.9 952.9,228.9 950.4,235.9 C950,236.9 949.9,237.9 949.8,239 C945.5,235.6 943.2,230.8 944.6,226.9 Z" id="Shape" fill="#1A1A1A" fill-rule="nonzero"></path>
        <path d="M910,262.4 C899.4,256.4 888,257.2 884,264.2 C882,267.8 882.2,272.3 884.8,276.9 C887.1,281 891,284.7 895.8,287.5 C900.5,290.2 905.5,291.5 909.8,291.5 C915.1,291.5 919.6,289.5 921.8,285.6 C925.8,278.6 920.6,268.3 910,262.4 Z" id="Path" fill="#1A1A1A" fill-rule="nonzero"></path>
        <path d="M831.8,182.8 C833.5,182.9 834.9,181.7 835,180 C835.1,178.3 833.9,176.9 832.2,176.8 C831.9,176.8 825.5,176.4 820.3,181 C816.5,184.4 814.3,189.4 813.9,196 C813.8,197.7 815.1,199.1 816.7,199.2 C816.8,199.2 816.8,199.2 816.9,199.2 C818.5,199.2 819.8,198 819.9,196.4 C820.2,191.2 821.8,188 823.8,186 L827.1,193.5 C827.6,194.6 828.7,195.3 829.8,195.3 C830.2,195.3 830.6,195.2 831,195 C832.5,194.3 833.2,192.6 832.5,191 L829,183.1 C830.5,182.8 831.5,182.8 831.8,182.8 Z" id="Path" fill="#1A1A1A" fill-rule="nonzero"></path>
        <path d="M1255.9,385.4 C1255.9,385.4 1257.9,398.7 1255.4,412.3 C1253.7,421.3 1254.1,430.6 1262.7,428.6 C1271.3,426.6 1266.9,417.9 1268,408.9 C1269,401.2 1276.4,401.5 1285,412.7 C1290.5,419.9 1295.7,417 1300.3,412.1 C1302.3,410.1 1303.5,407.9 1307.1,405.9 C1313.3,402.5 1316.9,409.8 1323.6,408.5 C1330.6,407.1 1331.4,403.9 1335.8,403.3 C1341.8,402.5 1345.2,408.9 1350,404.3 C1354.8,399.7 1347.8,394 1348.3,385.2 C1348.3,385.2 1343,394.2 1320,396.4 C1266.4,402 1255.9,385.4 1255.9,385.4 Z" id="Path" fill="#FFFFFF" fill-rule="nonzero"></path>
        <path d="M1260.6,431.9 C1257.8,431.9 1256,430.8 1254.9,429.7 C1251.7,426.6 1250.9,420.7 1252.5,411.7 C1254.9,398.7 1253,385.9 1253,385.8 C1252.8,384.4 1253.6,383 1254.9,382.5 C1256.2,382 1257.7,382.5 1258.5,383.7 C1258.7,384 1269.8,398.6 1319.9,393.6 C1340.8,391.5 1345.9,383.8 1346,383.8 C1346.7,382.6 1348.1,382.1 1349.5,382.5 C1350.8,382.9 1351.7,384.2 1351.6,385.6 C1351.4,388.8 1352.4,391.5 1353.4,394.2 C1354.8,398 1356.5,402.7 1352.3,406.7 C1348.1,410.7 1344,408.9 1341.3,407.7 C1339.6,406.9 1338.1,406.3 1336.5,406.5 C1335.2,406.7 1334.4,407.2 1333,408.1 C1331.1,409.3 1328.8,410.8 1324.5,411.7 C1320.4,412.5 1317.3,411 1314.7,409.7 C1312,408.3 1310.7,407.8 1308.8,408.8 C1306.6,410 1305.5,411.2 1304.3,412.6 C1303.8,413.2 1303.3,413.8 1302.7,414.4 C1300.3,417 1296.5,420.4 1291.7,420.2 C1288.5,420 1285.5,418.2 1282.8,414.7 C1277.8,408.2 1273.9,406.4 1272.5,406.8 C1271.6,407 1271.3,408.9 1271.2,409.4 C1270.9,411.9 1271,414.4 1271.2,416.9 C1271.6,422.6 1272,429.7 1263.6,431.6 C1262.4,431.8 1261.4,431.9 1260.6,431.9 Z M1259.6,392.4 C1259.9,397.7 1259.8,405.2 1258.4,412.9 C1257,420.4 1257.8,424.3 1259,425.4 C1259.6,426 1260.6,426.1 1262.1,425.7 C1265.1,425 1265.5,423.9 1265.1,417.2 C1264.9,414.6 1264.7,411.6 1265.1,408.6 C1265.6,404.6 1267.7,401.8 1270.8,401 C1275.6,399.7 1281.5,403.3 1287.5,411 C1289.1,413 1290.5,414.1 1291.9,414.2 C1293.6,414.3 1295.7,412.9 1298.3,410.2 C1298.8,409.7 1299.3,409.2 1299.7,408.6 C1301.1,407 1302.7,405.1 1305.9,403.4 C1310.6,400.8 1314.5,402.8 1317.3,404.2 C1319.7,405.4 1321.2,406.1 1323.2,405.7 C1326.5,405.1 1328.1,404 1329.6,403 C1331.1,402 1332.8,400.9 1335.5,400.5 C1338.9,400 1341.5,401.2 1343.6,402.2 C1346.3,403.4 1346.8,403.5 1348,402.3 C1349.1,401.2 1349,400.3 1347.5,396.3 C1347,394.9 1346.4,393.4 1346,391.8 C1341.6,394.8 1333.8,398.4 1320.3,399.7 C1297.6,402 1279.6,400.7 1266.7,395.9 C1263.8,394.7 1261.5,393.5 1259.6,392.4 Z" id="Shape" fill="#1A1A1A" fill-rule="nonzero"></path>
        <path d="M1248.6,450.6 C1248.6,450.6 1243.8,459.3 1243.3,467.1 C1242.9,473.1 1244.1,481.9 1240.5,483.9 C1236.8,485.9 1235.2,478.9 1230.3,479.2 C1226.9,479.4 1224.1,485.2 1220.5,484.9 C1216.8,484.6 1213.8,481.2 1213.8,481.2 L1232.1,464.9 L1248.6,450.6 Z" id="Path" fill="#FFFFFF" fill-rule="nonzero"></path>
        <path d="M1220.8,488 C1220.6,488 1220.4,488 1220.2,488 C1215.5,487.6 1212,483.8 1211.6,483.4 C1211.1,482.8 1210.8,482 1210.8,481.2 C1210.8,480.4 1211.2,479.7 1211.8,479.1 L1230.1,462.8 L1246.6,448.4 C1247.7,447.4 1249.3,447.4 1250.5,448.3 C1251.6,449.2 1251.9,450.8 1251.2,452.1 C1251.1,452.3 1246.7,460.3 1246.2,467.3 C1246.1,468.7 1246.1,470.3 1246.1,471.9 C1246.1,477.9 1246.1,484.2 1241.8,486.5 C1238,488.6 1235.1,485.7 1233.5,484.2 C1232.2,482.9 1231.3,482.1 1230.4,482.2 C1229.8,482.2 1228.5,483.4 1227.7,484.2 C1225.9,486 1223.7,488 1220.8,488 Z M1218.4,481.2 C1219.1,481.6 1219.9,481.9 1220.7,482 C1221.3,482.1 1222.8,480.8 1223.7,479.9 C1225.4,478.3 1227.4,476.5 1230.1,476.3 C1233.8,476 1236.2,478.4 1237.8,480 C1238.2,480.4 1238.8,481 1239.1,481.2 C1240.2,480.1 1240.2,474.4 1240.2,471.9 C1240.2,470.2 1240.2,468.5 1240.3,466.9 C1240.4,464.9 1240.8,462.9 1241.3,460.9 L1234.1,467.2 L1218.4,481.2 Z" id="Shape" fill="#1A1A1A" fill-rule="nonzero"></path>
        <path d="M955.4,1474.1 C938,1474.1 923.9,1460 923.9,1442.6 C923.9,1438.4 924.7,1434.2 926.4,1430.3 C931.3,1418.6 942.7,1411.1 955.4,1411.1 C972.8,1411.1 986.9,1425.2 986.9,1442.6 C986.9,1452.3 982.5,1461.3 974.9,1467.3 C969.4,1471.8 962.6,1474.1 955.4,1474.1 Z M955.4,1417.1 C945.1,1417.1 935.9,1423.2 931.9,1432.7 C930.6,1435.8 929.9,1439.2 929.9,1442.6 C929.9,1456.7 941.3,1468.1 955.4,1468.1 C961.2,1468.1 966.7,1466.2 971.2,1462.6 C977.4,1457.7 980.9,1450.4 980.9,1442.6 C980.9,1428.6 969.5,1417.1 955.4,1417.1 Z" id="Shape" fill="#1A1A1A" fill-rule="nonzero"></path>
        <path d="M955.4,1474.1 C938,1474.1 923.9,1460 923.9,1442.6 C923.9,1438.4 924.7,1434.2 926.4,1430.3 L931.9,1432.6 C930.6,1435.7 929.9,1439.1 929.9,1442.5 C929.9,1456.6 941.3,1468 955.4,1468 C961.2,1468 966.7,1466.1 971.2,1462.5 L974.9,1467.2 C969.4,1471.8 962.6,1474.1 955.4,1474.1 Z" id="Path" fill="#981313" fill-rule="nonzero"></path>
        <path d="M920.8,1452.6 C910.8,1452.6 902.1,1445.9 899.6,1436.2 C899.1,1434.4 898.9,1432.6 898.9,1430.7 C898.9,1418.6 908.7,1408.8 920.8,1408.8 C928.1,1408.8 934.8,1412.4 938.9,1418.4 C939.8,1419.8 939.5,1421.6 938.1,1422.6 C936.7,1423.5 934.9,1423.2 933.9,1421.8 C930.9,1417.4 926,1414.8 920.8,1414.8 C912.1,1414.8 904.9,1421.9 904.9,1430.7 C904.9,1432.1 905.1,1433.4 905.4,1434.7 C907.2,1441.7 913.5,1446.6 920.7,1446.6 C922.4,1446.6 923.7,1447.9 923.7,1449.6 C923.7,1451.3 922.4,1452.6 920.8,1452.6 Z" id="Path" fill="#1A1A1A" fill-rule="nonzero"></path>
        <path d="M920.8,1452.6 C910.8,1452.6 902.1,1445.9 899.6,1436.2 L905.4,1434.7 C907.2,1441.7 913.5,1446.6 920.7,1446.6 C922.8,1446.6 924.9,1446.2 926.9,1445.4 L929.2,1450.9 C926.6,1452.1 923.7,1452.6 920.8,1452.6 Z" id="Path" fill="#981313" fill-rule="nonzero"></path>
        <path d="M515.9,1474.1 C509.8,1474.1 504,1472.4 498.9,1469.1 C489.8,1463.3 484.4,1453.4 484.4,1442.6 C484.4,1425.2 498.5,1411.1 515.9,1411.1 C529.2,1411.1 541.1,1419.5 545.6,1432 C546.8,1435.4 547.4,1439 547.4,1442.6 C547.4,1460 533.3,1474.1 515.9,1474.1 Z M515.9,1417.1 C501.8,1417.1 490.4,1428.5 490.4,1442.6 C490.4,1451.3 494.8,1459.3 502.1,1464.1 C506.2,1466.7 511,1468.1 515.9,1468.1 C530,1468.1 541.4,1456.7 541.4,1442.6 C541.4,1439.7 540.9,1436.8 539.9,1434 C536.3,1423.9 526.7,1417.1 515.9,1417.1 Z" id="Shape" fill="#1A1A1A" fill-rule="nonzero"></path>
        <path d="M515.9,1474.1 C509.8,1474.1 504,1472.4 498.9,1469.1 L502.1,1464.1 C506.2,1466.7 511,1468.1 515.9,1468.1 C530,1468.1 541.4,1456.7 541.4,1442.6 C541.4,1439.7 540.9,1436.8 539.9,1434 L545.6,1432 C546.8,1435.4 547.4,1439 547.4,1442.6 C547.4,1460 533.3,1474.1 515.9,1474.1 Z" id="Path" fill="#981313" fill-rule="nonzero"></path>
        <path d="M550.6,1452.6 C548.9,1452.6 547.6,1451.3 547.6,1449.6 C547.6,1447.9 548.9,1446.6 550.6,1446.6 C558,1446.6 564.5,1441.3 566.1,1434.1 C566.3,1433 566.5,1431.9 566.5,1430.7 C566.5,1422 559.4,1414.8 550.6,1414.8 C545.3,1414.8 540.4,1417.4 537.5,1421.8 C536.6,1423.2 534.7,1423.5 533.3,1422.6 C531.9,1421.7 531.6,1419.8 532.5,1418.4 C536.6,1412.4 543.3,1408.8 550.6,1408.8 C562.7,1408.8 572.5,1418.6 572.5,1430.7 C572.5,1432.3 572.3,1433.8 572,1435.3 C569.8,1445.4 560.8,1452.6 550.6,1452.6 Z" id="Path" fill="#1A1A1A" fill-rule="nonzero"></path>
        <path d="M550.6,1452.6 C547.7,1452.6 544.8,1452 542.1,1450.9 L544.4,1445.4 C546.4,1446.2 548.4,1446.6 550.6,1446.6 C558,1446.6 564.5,1441.3 566.1,1434.1 L572,1435.4 C569.8,1445.4 560.8,1452.6 550.6,1452.6 Z" id="Path" fill="#981313" fill-rule="nonzero"></path>
        <path d="M962.6,1331.7 C960.3,1314.1 956,1298.4 955.4,1296.2 L924.4,995.7 C924.5,995.4 924.5,995.1 924.4,994.8 L908.9,846 L908.9,845.8 C908.9,845.6 908.8,845.4 908.8,845.2 C908.8,845.2 908.8,845.1 908.7,845.1 C908.6,845 908.6,844.8 908.5,844.7 C908.5,844.6 908.4,844.6 908.4,844.5 C908.3,844.4 908.3,844.3 908.2,844.2 C908.1,844.1 908.1,844.1 908,844 C907.9,843.9 907.8,843.8 907.7,843.8 C907.7,843.8 907.6,843.8 907.6,843.7 C907.6,843.7 907.5,843.6 907.4,843.6 C907.3,843.5 907.2,843.5 907.1,843.4 C907,843.4 906.9,843.3 906.8,843.3 C906.7,843.3 906.6,843.2 906.5,843.2 C906.4,843.2 906.3,843.2 906.2,843.1 C906.1,843.1 906,843.1 905.9,843.1 C905.8,843.1 905.7,843.1 905.6,843.1 L905.5,843.1 C905.4,843.1 905.3,843.1 905.3,843.1 C905.2,843.1 905.2,843.1 905.1,843.1 L874.8,850.5 L840.6,853 L840.5,853 C839.4,853.1 838.4,853.8 838,854.8 C837.1,857.1 838.9,859.1 841,859 L841.2,859 C843.5,858.9 867.3,858.1 880.1,884.3 C893.1,911 903.9,944.1 910.6,967.2 C915.4,983.6 918.7,1000.4 920.4,1017.5 C920.3,1017.9 927.3,1058.2 893.8,1090 C886.9,1096.6 880.3,1101.6 879.9,1111.1 C879.4,1123.5 888.6,1139.9 896.8,1154.3 C903.2,1165.6 911.2,1179.7 908,1183 C903.4,1187.8 891.1,1180.8 882.2,1175.7 C876.7,1172.6 871.9,1169.8 868.4,1169.3 C863,1168.5 857.3,1170.4 853.2,1174.4 C849,1178.4 847,1183.8 847.5,1189.5 C848.3,1197.8 856.2,1205.3 866.2,1214.7 C870.8,1219 876,1224 881.1,1229.5 C882.5,1231 883.8,1232.5 885.2,1234 C899.8,1249.9 915,1266.3 916.3,1286.7 C917.6,1307.5 907.6,1312.5 907.1,1312.8 C907,1312.8 907,1312.9 906.9,1312.9 C885.1,1318.5 859.2,1321.1 829.4,1320.5 C799.7,1320 790.8,1314.1 788.9,1312.5 L749.7,979.8 C755.8,978.6 760.5,975.8 763.9,971.3 C772.2,960.3 769.6,942.5 768,931.8 C767.7,929.7 767.4,927.9 767.3,926.6 C767,923.4 767.6,920.9 769.2,919.1 C773.1,914.5 783,913.7 791.8,913 C795.8,912.7 799.5,912.4 802.9,911.8 C808.5,910.8 812.5,906.6 812.7,901.6 C812.9,898.2 811.4,889.9 794.5,885.3 C775.1,879.9 742.4,881.5 733.9,882.1 C733.8,882.1 733.7,882.1 733.5,882.1 C720.7,882.1 709,879.6 698.7,874.9 C697.4,874.3 695.8,874.6 694.9,875.8 C693.8,877.4 694.4,879.5 696.1,880.3 C705,884.4 714.9,886.9 725.7,887.8 C725.6,888.1 725.6,888.4 725.5,888.7 L713.4,1002.9 C713.4,1002.9 713.4,1002.9 713.4,1003 L713.3,1003.8 C712.9,1006.1 711,1014.4 701.3,1021.6 C698.3,1023.8 695.5,1025.3 692.7,1026.7 C685.6,1030.4 678.8,1034 679.4,1047.4 C679.5,1049.1 679.6,1050.9 679.7,1052.8 C680.2,1062.3 681.1,1080 677.6,1082.9 C677.5,1083 677.3,1083.2 676.7,1083 C672.6,1082.1 664.7,1071.7 658.3,1063.2 C652,1054.9 646.1,1047.1 641.1,1043.7 C635.9,1040.2 629.5,1039.9 623.9,1043 C616.9,1046.8 612.6,1054.9 612.8,1063.6 C613.1,1075.6 626.7,1102 653.3,1141.9 C670,1166.9 687.8,1209.4 687.5,1243.5 C687.5,1244.1 687.6,1244.6 687.9,1245 L682,1301 C651.8,1313.3 610.6,1314 559.3,1303.1 C527.1,1296.2 521.2,1287.8 520.8,1287 L561.2,768.1 C561.3,766.4 560.1,765 558.4,764.9 C556.8,764.8 555.3,766 555.2,767.7 L514.5,1290.1 C514.5,1290.3 514.5,1290.6 514.5,1290.8 C512.9,1300.9 508.3,1333.4 511.7,1355.3 C513.4,1366.4 521.8,1381.3 552.2,1388.9 C571.7,1393.8 597.5,1396.9 621.2,1396.9 C638.8,1396.9 655.1,1395.2 666.7,1391.1 C688.4,1383.5 687.7,1314.6 687.5,1303.8 C687.6,1303.5 687.7,1303.2 687.8,1302.9 L731.6,889.3 C731.6,889.1 731.7,888.6 732.4,888.6 C733.1,888.6 733.2,889.1 733.2,889.3 L783.2,1314.1 C783.3,1317.3 784.3,1356.9 792.9,1380.9 C796.3,1390.3 804.1,1397.2 816.2,1401.4 C827.1,1405.2 838,1405.6 842.2,1405.6 C892.1,1405.6 934.1,1396.1 954.3,1380.3 C963.1,1373.8 965.9,1357.4 962.6,1331.7 Z M664.7,1385.6 C641.4,1393.7 591.6,1392.7 553.7,1383.2 C538.7,1379.5 520.2,1371.4 517.6,1354.5 C514.7,1335.5 518.2,1307 520,1294.8 C520.8,1295.4 521.8,1296.1 523,1296.8 C530.7,1301.6 542.5,1305.7 558.1,1309 C609.1,1319.9 650.6,1319.4 681.6,1307.6 C681.8,1337.1 677.7,1381 664.7,1385.6 Z M950.6,1375.6 C943.4,1381.2 914.2,1399.6 842.1,1399.6 C839.1,1399.6 828.4,1399.3 818.1,1395.7 C807.8,1392.1 801.2,1386.5 798.4,1378.9 C791.9,1360.8 789.9,1332.2 789.3,1319.9 C790.3,1320.4 791.3,1320.9 792.6,1321.3 C801.1,1324.5 813.4,1326.3 829.3,1326.6 C881.5,1327.5 922.3,1319.1 950.5,1301.5 C955.9,1321.9 964,1365.6 950.6,1375.6 Z" id="Shape" fill="#1A1A1A" fill-rule="nonzero"></path>
        <path d="M615.1,1393.9 C615.1,1393.9 647.3,1395.5 644.3,1422.1 L647.4,1393.6 L615.1,1393.9 Z" id="Path" fill="#1A1A1A" fill-rule="nonzero"></path>
        <path d="M644.4,1425.1 C644.3,1425.1 644.2,1425.1 644.1,1425.1 C642.5,1424.9 641.3,1423.4 641.4,1421.8 L641.4,1421.7 C642.1,1415.5 640.7,1410.4 637.3,1406.4 C629.8,1397.6 615.1,1396.8 615,1396.8 C613.4,1396.7 612.1,1395.4 612.1,1393.7 C612.1,1392.1 613.5,1390.8 615.1,1390.8 L647.4,1390.6 C648.2,1390.6 649.1,1391 649.6,1391.6 C650.1,1392.2 650.4,1393.1 650.4,1393.9 L647.3,1422.3 C647.3,1422.3 647.3,1422.3 647.3,1422.4 C647.2,1424 645.9,1425.1 644.4,1425.1 Z M634.8,1396.7 C637.4,1398.2 639.8,1400.1 641.8,1402.5 C642.3,1403.1 642.8,1403.7 643.2,1404.4 L644,1396.6 L634.8,1396.7 Z" id="Shape" fill="#1A1A1A" fill-rule="nonzero"></path>
        <path d="M1061,532.8 C1057,524.9 1050.3,512.2 1041.6,497.2 C1027,472 1005,437.4 982.9,415.3 C957.4,389.8 900.7,352.2 879.6,341.1 C876.7,339.5 875.5,336 877,333 L890.5,306 C891.2,304.5 890.6,302.7 889.2,302 C887.7,301.3 885.9,301.9 885.2,303.3 L871.7,330.3 C868.8,336.1 871.1,343.3 876.9,346.4 C888.2,352.4 909.9,366.1 931.4,381.4 C928.3,385.6 917.8,398.8 900,410 C871.5,427.9 838.9,432.2 803.1,422.8 C771.5,414.5 748.1,395.3 733.4,365.6 C724.5,347.6 721.8,331 721,325.1 C729,323.1 736.7,321.2 743.9,319.4 C767.4,313.7 784.4,309.6 790.4,305 C802.1,296 823.1,232.7 825.4,225.5 C825.9,223.9 825.1,222.2 823.5,221.7 C821.9,221.2 820.2,222 819.7,223.6 C810.7,251.1 794.5,294.2 786.7,300.1 C781.7,303.9 763.5,308.4 742.4,313.5 C718.7,319.2 689.3,326.4 662.1,336.4 C602.9,358.1 535.9,408.6 482.8,471.3 C476.2,479.1 470,486.5 464.2,493.3 C432.5,531.1 413.4,553.9 395.3,566.6 C392.2,568.8 387.5,569.1 381.1,567.8 C363.4,564 333.8,546.3 297.7,517.9 C268.4,494.8 245.6,473.2 243.3,469.8 C243,468.6 242.5,466.2 241.9,463.4 C236.5,437.5 232.1,423.6 224.3,424.6 C216.8,425.6 217.3,438.1 217.9,451.4 C218,454.8 218.2,459.1 218.1,461.6 C214.9,460 208.6,455.8 203.4,452.4 C181.1,437.8 170.9,431.9 167,437.6 C164.8,440.9 165.8,444.7 168.7,448.9 C158.8,442.6 153.2,441.1 150.3,444.9 C146.4,450 153,458.8 169.3,473.8 C162.3,469.5 158.2,467.8 155.6,468.3 C154.5,468.5 153.5,469.2 152.9,470.1 C147.5,478.2 161.9,490.3 179.8,503.3 C166.5,499.9 159.3,498.7 156.1,500.6 C155.1,501.2 154.3,502.2 154.1,503.3 C153.2,507 156.3,510.8 175,519.4 C185.9,524.4 198.6,529.4 205.2,532 C207.8,533 210,534.5 211.9,536.5 C213.5,538.2 215.7,540.6 218.4,543.5 C252.4,580.5 355.5,692.7 416.1,692.7 C416.3,692.7 416.6,692.7 416.9,692.7 C441.1,692.3 467.2,679.8 494.6,655.6 C511.4,640.7 523.3,626.1 527.1,621.2 C536.5,630.7 546.4,639.7 556.2,647.1 C556.2,647.1 556.3,647.2 556.4,647.2 C556.5,647.2 556.5,647.3 556.6,647.3 C556.7,647.4 556.8,647.4 556.9,647.4 C557,647.4 557,647.5 557.1,647.5 C557.2,647.5 557.3,647.6 557.4,647.6 C557.5,647.6 557.5,647.6 557.6,647.6 C557.8,647.6 557.9,647.6 558.1,647.6 C558.3,647.6 558.5,647.6 558.7,647.5 C558.8,647.5 558.8,647.5 558.9,647.4 C559,647.4 559.2,647.3 559.3,647.3 C559.4,647.3 559.5,647.2 559.5,647.2 C559.6,647.1 559.7,647.1 559.8,647 C559.9,646.9 559.9,646.9 560,646.8 C560.1,646.7 560.1,646.7 560.2,646.6 L572.4,632.9 L528.5,762.2 C528,763.4 526,768.6 528.3,775.4 C531.4,784.2 540.2,791.9 554.5,798.4 C554.9,798.6 555.3,798.7 555.7,798.7 C556.2,798.7 556.8,798.6 557.2,798.3 C558,797.8 558.6,796.9 558.7,796 L560.8,769.7 C586.3,776.4 633.2,793.6 717.2,836.7 C751.9,854.5 791.4,859.2 823.2,859.2 C830,859.2 836.5,859 842.5,858.6 C871.6,856.9 894.8,851.9 903.1,849.9 L904,857.7 C904.2,859.2 905.5,860.4 907,860.4 C907.1,860.4 907.2,860.4 907.3,860.4 C920.4,859.1 932.8,853.3 935.8,847.3 C936.4,846.7 936.7,845.8 936.6,844.9 C936.6,844.9 936.6,844.7 936.5,844.3 C936.5,844.1 936.5,843.9 936.4,843.7 C935.4,835.7 929.6,788.7 925.7,732.5 C923.7,702.9 922.5,675.7 922.3,651.1 L978.3,697.9 C978.9,698.4 979.5,698.6 980.2,698.6 C980.9,698.6 981.7,698.3 982.2,697.8 C982.5,697.5 1012.9,669.2 1038.2,627.7 C1062.9,587.1 1067.4,555.4 1068.1,550.1 C1068.9,548.7 1067.9,546.3 1061,532.8 Z M416.9,686.6 C392.5,686.9 356.7,666.8 310.6,626.6 C273.1,593.9 239.2,557 222.9,539.3 C220.2,536.3 218,533.9 216.4,532.2 C213.9,529.6 210.9,527.5 207.5,526.2 C182.4,516.5 167.4,509.3 162.2,505.5 C167.5,505.9 178,508.7 183,510 C185.7,510.7 187.9,511.3 189.7,511.7 C192,512.2 194.6,512.8 195.8,510.5 C197.1,508 194.8,506.3 193.2,505 C191.9,504 190.1,502.8 188,501.3 C182.2,497.1 173.3,490.8 166.7,484.9 C160.1,478.9 158.5,475.7 158.2,474.3 C162.6,475.8 174,483.6 180.4,487.9 C192.4,496.1 194.7,497.5 197.1,496.8 C198.1,496.5 198.8,495.8 199.2,494.9 C200.1,492.6 198.3,491 195.7,488.6 C193.8,486.9 191.2,484.6 188.2,482 C181.5,476.2 173.2,468.9 166.4,462.2 C158,453.8 156.2,450.1 155.8,448.8 C161.2,449.4 179.6,463.3 186.7,468.7 C196.5,476.1 197.4,476.8 199.4,476.3 C200.3,476 201.1,475.3 201.4,474.4 C202.6,471.4 200.1,469.3 191.8,462.4 C187.1,458.4 181.1,453.5 177.1,449 C173,444.5 172.4,442.3 172.4,441.4 C176.9,441.8 192.2,451.8 200.6,457.3 C215.9,467.3 219.1,469.2 221.9,467.8 C225.1,466.2 224.9,461.5 224.5,451.1 C224.3,445.5 223.7,432.7 225.7,430.6 C227.4,431.5 230.9,437.3 236.6,464.6 C237.3,468 237.8,470.4 238.2,471.7 C239.4,475.8 266.3,499.9 288.6,517.8 C313,537.4 347.5,562.7 372.8,571.4 C384.8,575.5 393.5,575.6 399.3,571.4 C413.7,561.3 428.4,545.3 449,521.1 C453.1,527.4 465.2,545.9 481.5,567.3 C485.3,572.3 489.4,577.6 493.9,583.2 C494,583.6 494.2,584 494.5,584.3 L495.7,585.8 C498.3,589.1 504.5,597.9 505,609 C505.5,619.6 502.1,633.5 495.2,644.3 L483.8,656.5 C483.7,656.6 483.7,656.6 483.7,656.7 C464.7,672.4 441,686.3 416.9,686.6 Z M1033.4,624.6 C1012.2,659.4 987.3,684.8 980.3,691.6 L922.4,643.2 C922.3,604.1 924.5,572.2 929,549.2 C929.3,547.6 928.3,546 926.6,545.7 C925,545.4 923.4,546.4 923.1,548.1 C919.5,566.2 916.2,596.2 916.4,644.4 C916.4,644.6 916.4,644.8 916.4,645 C916.5,669.4 917.5,698.5 919.9,733 C923.2,781.3 928,822.9 929.9,838.8 C922.1,837.8 909.5,841.8 905,843.3 C903.4,843.7 877.2,850.6 842.2,852.6 C809.1,854.5 761,852.4 720.1,831.3 C593.6,766.4 549.8,759.2 535.8,759.6 L582.7,621.4 L624.6,574.3 C625.7,573.1 625.6,571.2 624.4,570.1 C623.2,569 621.3,569.1 620.2,570.3 L557.7,640.5 C530.8,619.6 504.1,587.5 486.2,563.9 C468.3,540.3 455.5,520.5 453,516.5 C458,510.5 463.4,504.1 469.2,497.2 C475,490.3 481.1,483 487.7,475.2 C540.1,413.2 606.2,363.5 664.4,342.1 C681.1,336 698.7,330.9 715.2,326.6 C716.1,333.4 719,349.8 728,368 C738.6,389.6 760,417.6 801.6,428.5 C814.8,432 827,433.4 838.3,433.4 C866.7,433.4 888.6,424.1 903.4,414.8 C922.1,403 932.9,389.4 936.3,384.8 C952.6,396.6 968.3,409.1 978.7,419.5 C1019.1,459.9 1059.4,542.1 1062.3,549.4 C1061.8,553.9 1057.3,585.3 1033.4,624.6 Z" id="Shape" fill="#1A1A1A" fill-rule="nonzero"></path>
        <path d="M1282.2,495.1 L1273.9,462.4 C1273.6,461.3 1272.7,460.4 1271.5,460.2 C1270.3,460 1269.2,460.5 1268.5,461.5 C1268.3,461.8 1263.1,469.6 1265.6,478.5 C1268.9,490.3 1264.8,502.9 1259.9,510.1 C1259.5,510.6 1259.1,511.1 1258.7,511.6 L1257.2,513.5 C1257.1,513.7 1257,513.8 1256.9,514 C1248.8,524.6 1237.9,539 1226.3,554.5 C1226.1,554.6 1226,554.8 1225.8,554.9 C1225.6,555.1 1205.1,579 1169.6,596.5 C1134.5,613.8 1123.9,632.1 1113.7,649.7 C1112.8,651.3 1111.8,653 1110.8,654.6 L1110.4,655.3 C1098.5,675.5 1078.5,709.4 1040.8,697.7 C1040.5,697.6 1040.2,697.6 1039.9,697.6 C1019.1,688.2 1006.4,672.4 1006.2,672.2 C1005.2,670.9 1003.3,670.7 1002,671.7 C1000.7,672.7 1000.5,674.6 1001.5,675.9 C1002.6,677.3 1029.4,710.5 1070.9,710.5 C1090.3,710.5 1109.1,703.6 1126.8,690 C1141.4,678.8 1155.5,663 1169.9,641.7 C1189.4,612.9 1238.8,547.4 1262.3,516.7 C1263.1,515.8 1263.9,514.8 1264.7,513.7 L1276.3,499.2 L1279.8,498.7 C1280.6,498.6 1281.4,498.1 1281.9,497.4 C1282.2,496.8 1282.4,495.9 1282.2,495.1 Z" id="Path" fill="#1A1A1A" fill-rule="nonzero"></path>
        <path d="M336,701.5 C335.3,701.5 334.5,701.2 333.9,700.7 L246.7,617.1 C245.5,616 245.5,614.1 246.6,612.9 C247.7,611.7 249.6,611.7 250.8,612.8 L338,696.4 C339.2,697.5 339.2,699.4 338.1,700.6 C337.5,701.2 336.8,701.5 336,701.5 Z" id="Path" fill="#1A1A1A" fill-rule="nonzero"></path>
        <path d="M1016.8,154 C1015.6,149.1 1014.4,144.1 1012.9,138.4 L1012.9,138.3 C1006.8,118.5 992.878906,84.9140625 942.1,68.4 C900.168772,54.7633353 836.022266,59.7851262 808.2,111.142578 C779.191307,164.690071 779.191307,216.408821 808.2,266.298828 C808.2,266.198828 822.3,227.8 822.4,227.7 C822.6,227.7 822.7,227.7 822.9,227.7 C824.1,227.7 825.2,227 825.7,225.9 C826.3,224.4 825.6,222.6 824.1,222 C824,221.9 810.5,216.1 808.2,204.2 C805.9,192.4 810.3,173.5 822.6,169.3 C825.7,168.2 828.7,168 831.5,168.6 C832.6,169 833.8,169.4 835.1,169.9 C835.5,170.1 836,170.4 836.4,170.7 C840.2,173.4 842.6,178.1 842.7,183.2 C842.8,189.1 843,201.4 855.8,202.1 C866.9,202.7 871.4,191.1 875.1,179.2 C877.5,171.5 881.3,168.1 884.1,166.7 C886.5,165.5 889.1,165.2 891.3,165.9 C898.7,168.4 905.6,172.7 913.6,177.8 C925.1,185.1 938.2,193.4 956.9,198.5 C974.9,203.4 991.861837,207.666727 1007.7,201.144485 C1023.53816,194.622242 1020.6,169.6 1016.8,154 Z" id="Path" fill="#1A1A1A" fill-rule="nonzero"></path>
        <path d="M880.736822,318.735052 C880.088619,317.91906 879.886416,316.775319 880.3,315.7 L884.6,305.5 C862.1,299.1 846.8,285.8 846,285.1 C844.7,284 844.6,282.1 845.7,280.9 C846.8,279.6 848.7,279.5 849.9,280.6 C850.152715,280.852715 868.145713,296.503996 893.358323,301.431493 L880.736822,318.735052 Z" id="Combined-Shape" fill="#1A1A1A" fill-rule="nonzero"></path>
        <path d="M944.2,74.9 C944.2,74.9 948.8,120 1007.7,138.4 C1001.5,118.6 991,93.3 944.2,74.9 Z" id="Path" fill="#FFFFFF" fill-rule="nonzero"></path>
        <path d="M903.873495,69.2379455 C902.673495,67.0379455 900.573495,65.5379455 897.873495,65.0379455 C895.173495,64.5379455 892.273495,65.0379455 889.673495,66.4379455 C884.173495,69.4379455 881.673495,75.4379455 884.173495,79.8379455 C885.673495,82.6379455 888.773495,84.1379455 892.273495,84.1379455 C894.273495,84.1379455 896.473495,83.6379455 898.473495,82.5379455 C903.773495,79.7379455 906.273495,73.7379455 903.873495,69.2379455 Z" id="Path" fill="#FFFFFF" fill-rule="nonzero" transform="translate(893.995413, 74.493399) rotate(25.000000) translate(-893.995413, -74.493399) "></path>
        <path d="M836.514856,133.933731 C831.914856,133.933731 828.114856,130.233731 828.014856,125.633731 C827.314856,85.1337306 852.014856,65.6337306 853.114856,64.7337306 C856.814856,61.8337306 862.214856,62.5337306 865.014856,66.2337306 C867.914856,69.9337306 867.214856,75.2337306 863.514856,78.1337306 C862.614856,78.8337306 844.414856,93.7337306 845.014856,125.233731 C845.114856,129.933731 841.314856,133.833731 836.714856,133.933731 C836.614856,133.933731 836.614856,133.933731 836.514856,133.933731 Z" id="Path" fill="#FFFFFF" fill-rule="nonzero" transform="translate(847.404259, 98.437027) rotate(33.000000) translate(-847.404259, -98.437027) "></path>
    </g>
</svg>