<?xml version="1.0" encoding="UTF-8"?>
<svg width="420px" height="420px" viewBox="0 0 420 420" version="1.1" xmlns="http://www.w3.org/2000/svg" xmlns:xlink="http://www.w3.org/1999/xlink">
    <!-- Generator: Sketch 53.2 (72643) - https://sketchapp.com -->
    <title>Logo_Dark</title>
    <desc>Created with Sketch.</desc>
    <g id="Logo_Dark" stroke="none" stroke-width="1" fill="none" fill-rule="evenodd">
        <rect id="Bound" x="0" y="0" width="420" height="420"></rect>
        <path d="M156,170.2 C157.066672,172.600012 157.6,174.733324 157.6,176.6 C157.6,180.333352 156.100015,183.499987 153.1,186.1 C150.099985,188.700013 146.666686,190 142.8,190 C140.266654,190 137.866678,189.300007 135.6,187.9 C133.333322,186.499993 131.600006,184.400014 130.4,181.6 L119.8,158 L52,158 L41.4,181.6 C40.199994,184.400014 38.500011,186.499993 36.3,187.9 C34.099989,189.300007 31.66668,190 29,190 C25.133314,190 21.666682,188.700013 18.6,186.1 C15.533318,183.499987 14,180.333352 14,176.6 C14,174.733324 14.533328,172.600012 15.6,170.2 L69.6,56.8 C71.066674,53.599984 73.266652,51.166675 76.2,49.5 C79.133348,47.833325 82.26665,47 85.6,47 C89.066684,47 92.266652,47.866658 95.2,49.6 C98.133348,51.333342 100.399992,53.733318 102,56.8 L156,170.2 Z M62.6,134.4 L109.2,134.4 L86,82.4 L62.6,134.4 Z" id="Shape" fill="#302E2E" fill-rule="nonzero"></path>
        <polygon id="Path" fill="#A32626" fill-rule="nonzero" points="62.6 134.4 109.2 134.4 86 82.4"></polygon>
        <path d="M224.2,190.6 C213.666614,190.6 203.866712,189.366679 194.8,186.9 C185.733288,184.433321 178.333362,180.933356 172.6,176.4 C170.59999,174.933326 169.166671,173.366675 168.3,171.7 C167.433329,170.033325 167,167.933346 167,165.4 C167,162.06665 168.033323,159.133346 170.1,156.6 C172.166677,154.066654 174.53332,152.8 177.2,152.8 C178.666674,152.8 180.099993,153.033331 181.5,153.5 C182.900007,153.966669 184.59999,154.799994 186.6,156 C192.333362,159.600018 198.133304,162.233325 204,163.9 C209.866696,165.566675 216.333298,166.4 223.4,166.4 C232.200044,166.4 238.93331,164.933348 243.6,162 C248.26669,159.066652 250.6,154.866694 250.6,149.4 C250.6,145.266646 248.433355,141.933346 244.1,139.4 C239.766645,136.866654 232.066722,134.466678 221,132.2 C208.599938,129.666654 198.700037,126.600018 191.3,123 C183.899963,119.399982 178.500017,114.93336 175.1,109.6 C171.699983,104.26664 170,97.800038 170,90.2 C170,81.799958 172.433309,74.233367 177.3,67.5 C182.166691,60.766633 188.899957,55.500019 197.5,51.7 C206.100043,47.899981 215.799946,46 226.6,46 C245.533428,46 261.133272,50.733286 273.4,60.2 C275.40001,61.800008 276.833329,63.433325 277.7,65.1 C278.566671,66.766675 279,68.799988 279,71.2 C279,74.53335 277.966677,77.466654 275.9,80 C273.833323,82.533346 271.46668,83.8 268.8,83.8 C267.333326,83.8 265.966673,83.600002 264.7,83.2 C263.433327,82.799998 261.666678,81.93334 259.4,80.6 C253.933306,77.133316 248.900023,74.533342 244.3,72.8 C239.699977,71.066658 233.866702,70.2 226.8,70.2 C218.666626,70.2 212.26669,71.766651 207.6,74.9 C202.93331,78.033349 200.6,82.333306 200.6,87.8 C200.6,91.000016 201.499991,93.633323 203.3,95.7 C205.100009,97.766677 208.099979,99.599992 212.3,101.2 C216.500021,102.800008 222.466628,104.466658 230.2,106.2 C248.333424,110.20002 261.366627,115.333302 269.3,121.6 C277.233373,127.866698 281.2,136.466612 281.2,147.4 C281.2,155.933376 278.833357,163.466634 274.1,170 C269.366643,176.533366 262.700043,181.599982 254.1,185.2 C245.499957,188.800018 235.53339,190.6 224.2,190.6 Z" id="Path" fill="#302E2E" fill-rule="nonzero"></path>
        <path d="M307.6,189.2 C302.799976,189.2 299.000014,187.800014 296.2,185 C293.399986,182.199986 292,178.400024 292,173.6 L292,61.6 C292,56.93331 293.266654,53.333346 295.8,50.8 C298.333346,48.266654 301.93331,47 306.6,47 L356.8,47 C372.13341,47 384.066624,50.866628 392.6,58.6 C401.133376,66.333372 405.4,77.133264 405.4,91 C405.4,104.866736 401.133376,115.666628 392.6,123.4 C384.066624,131.133372 372.13341,135 356.8,135 L323.2,135 L323.2,173.6 C323.2,178.400024 321.800014,182.199986 319,185 C316.199986,187.800014 312.400024,189.2 307.6,189.2 Z M352.8,111.4 C368.400078,111.4 376.2,104.666734 376.2,91.2 C376.2,77.599932 368.400078,70.8 352.8,70.8 L323.2,70.8 L323.2,111.4 L352.8,111.4 Z" id="Shape" fill="#302E2E" fill-rule="nonzero"></path>
        <path d="M118.6,299 C126.733374,301.400012 133.033311,305.566637 137.5,311.5 C141.966689,317.433363 144.2,324.73329 144.2,333.4 C144.2,345.266726 139.833377,354.666632 131.1,361.6 C122.366623,368.533368 110.33341,372 95,372 L42.6,372 C37.93331,372 34.333346,370.733346 31.8,368.2 C29.266654,365.666654 28,362.06669 28,357.4 L28,245.6 C28,240.93331 29.266654,237.333346 31.8,234.8 C34.333346,232.266654 37.93331,231 42.6,231 L93,231 C107.66674,231 119.299957,234.266634 127.9,240.8 C136.500043,247.333366 140.8,256.26661 140.8,267.6 C140.8,274.93337 138.833353,281.366639 134.9,286.9 C130.966647,292.433361 125.533368,296.466654 118.6,299 Z M58.4,288.4 L87.8,288.4 C95.80004,288.4 101.699981,287.033347 105.5,284.3 C109.300019,281.566653 111.2,277.400028 111.2,271.8 C111.2,265.933304 109.300019,261.633347 105.5,258.9 C101.699981,256.166653 95.80004,254.8 87.8,254.8 L58.4,254.8 L58.4,288.4 Z M91.4,348.2 C99.666708,348.2 105.666648,346.800014 109.4,344 C113.133352,341.199986 115,336.666698 115,330.4 C115,324.133302 113.133352,319.533348 109.4,316.6 C105.666648,313.666652 99.666708,312.2 91.4,312.2 L58.4,312.2 L58.4,348.2 L91.4,348.2 Z" id="Shape" fill="#302E2E" fill-rule="nonzero"></path>
        <path d="M274,294 C277.733352,294 280.699989,295.033323 282.9,297.1 C285.100011,299.166677 286.2,301.999982 286.2,305.6 L286.2,344.6 C286.2,349.93336 285.766671,354.066652 284.9,357 C284.033329,359.933348 282.533344,362.266658 280.4,364 C278.266656,365.733342 275.066688,367.199994 270.8,368.4 C265.599974,370.000008 259.633367,371.266662 252.9,372.2 C246.166633,373.133338 239.80003,373.6 233.8,373.6 C218.866592,373.6 205.933388,370.700029 195,364.9 C184.066612,359.099971 175.666696,350.766721 169.8,339.9 C163.933304,329.033279 161,316.133408 161,301.2 C161,286.53326 163.899971,273.766721 169.7,262.9 C175.500029,252.033279 183.799946,243.666696 194.6,237.8 C205.400054,231.933304 217.999928,229 232.4,229 C250.933426,229 266.266606,233.799952 278.4,243.4 C280.40001,245.000008 281.799996,246.599992 282.6,248.2 C283.400004,249.800008 283.8,251.799988 283.8,254.2 C283.8,257.666684 282.833343,260.633321 280.9,263.1 C278.966657,265.566679 276.66668,266.8 274,266.8 C272.266658,266.8 270.700007,266.533336 269.3,266 C267.899993,265.466664 266.20001,264.600006 264.2,263.4 C258.599972,259.933316 253.46669,257.466674 248.8,256 C244.13331,254.533326 239.000028,253.8 233.4,253.8 C206.199864,253.8 192.6,269.599842 192.6,301.2 C192.6,317.466748 196.133298,329.59996 203.2,337.6 C210.266702,345.60004 220.933262,349.6 235.2,349.6 C242.933372,349.6 250.599962,348.60001 258.2,346.6 L258.2,315.6 L239.8,315.6 C235.933314,315.6 232.933344,314.666676 230.8,312.8 C228.666656,310.933324 227.6,308.266684 227.6,304.8 C227.6,301.333316 228.666656,298.666676 230.8,296.8 C232.933344,294.933324 235.933314,294 239.8,294 L274,294 Z" id="Path" fill="#302E2E" fill-rule="nonzero"></path>
        <path d="M334.6,374.2 C328.466636,374.466668 323.833349,373.533344 320.7,371.4 C317.566651,369.266656 316,366.000022 316,361.6 C316,357.59998 316.99999,354.633343 319,352.7 C321.00001,350.766657 324.133312,349.666668 328.4,349.4 L334.8,349 C344.400048,348.599998 349.2,342.933388 349.2,332 L349.2,246.4 C349.2,241.73331 350.666652,238.000014 353.6,235.2 C356.533348,232.399986 360.33331,231 365,231 C369.66669,231 373.433319,232.399986 376.3,235.2 C379.166681,238.000014 380.6,241.73331 380.6,246.4 L380.6,331.6 C380.6,358.000132 367.400132,372.066658 341,373.8 L334.6,374.2 Z" id="Path" fill="#302E2E" fill-rule="nonzero"></path>
    </g>
</svg>